<?xml version="1.0" encoding="UTF-8"?>
<svg width="623px" height="419px" viewBox="0 0 623 419" version="1.1" xmlns="http://www.w3.org/2000/svg" xmlns:xlink="http://www.w3.org/1999/xlink">
    <!-- Generator: sketchtool 41.2 (35397) - http://www.bohemiancoding.com/sketch -->
    <title>E84A9032-329F-4033-8882-DF5E309BAA81</title>
    <desc>Created with sketchtool.</desc>
    <defs>
        <polygon id="path-1" points="0 419 622.692864 419 622.692864 0.154178602 0 0.154178602"></polygon>
    </defs>
    <g id="Page-1" stroke="none" stroke-width="1" fill="none" fill-rule="evenodd">
        <g id="1.-首頁" transform="translate(-97.000000, -91.000000)">
            <g id="Page-1" transform="translate(97.000000, 91.000000)">
                <polygon id="Fill-1" fill="#E4007F" points="0 154 15 154 15 78 0 78"></polygon>
                <polygon id="Fill-2" fill="#E4007F" points="41.8711698 240 41.8711698 280.868906 39.3705022 280.868906 39.3705022 275.849321 36.833476 275.849321 36.833476 270.947773 34.3004896 270.947773 34.3004896 265.632094 31.7695231 265.632094 31.7695231 262.943245 29.2345168 262.943245 29.2345168 257.925661 26.6995104 257.925661 26.6995104 252.902074 24.166524 252.902074 24.166524 247.88649 21.6315177 247.88649 21.6315177 242.864905 19.0965113 242.864905 19.0965113 240 16.5635249 240 1 240 1 316 16.5635249 316 16.5635249 270.947773 19.0965113 270.947773 19.0965113 275.849321 21.6315177 275.849321 21.6315177 280.868906 24.166524 280.868906 24.166524 285.88649 26.6995104 285.88649 26.6995104 290.908076 29.2345168 290.908076 29.2345168 295.925661 31.7695231 295.925661 31.7695231 298.612509 34.3004896 298.612509 34.3004896 303.93419 36.833476 303.93419 36.833476 308.829736 39.3705022 308.829736 39.3705022 313.851321 41.8711698 313.851321 41.8711698 316 60 316 60 240"></polygon>
                <polygon id="Fill-3" fill="#E4007F" points="25.7096602 340 25.7096602 342.409789 18.4404603 342.409789 18.4404603 344.997333 15.7812416 344.997333 15.7812416 347.542458 10.858175 347.542458 10.858175 350.041124 8.1507894 350.041124 8.1507894 352.628668 5.89095531 352.628668 5.89095531 357.670439 3.36218892 357.670439 3.36218892 362.805128 1 362.805128 1 395.512003 3.36218892 395.512003 3.36218892 400.777988 5.89095531 400.777988 5.89095531 405.688463 10.8140219 405.688463 10.8140219 410.744374 13.356837 410.744374 13.356837 413.24304 18.4404603 413.24304 18.4404603 415.860883 23.405673 415.860883 23.405673 418 31.0321113 418 48.2919454 418 48.2919454 415.860883 53.4939791 415.860883 53.4939791 413.24304 58.1039604 413.24304 58.1039604 410.506021 61 410.506021 61 387.898848 61 375.403496 58.1039604 375.403496 46.04616 375.403496 33.5147177 375.403496 33.5147177 387.898848 46.04616 387.898848 46.04616 400.777988 43.4471501 400.777988 43.4471501 403.010022 31.0321113 403.010022 31.0321113 400.777988 25.7096602 400.777988 25.7096602 398.251042 23.405673 398.251042 23.405673 395.512003 20.8608509 395.512003 20.8608509 390.633847 18.4404603 390.633847 18.4404603 367.578247 20.7002944 367.578247 20.7002944 362.805128 23.405673 362.805128 23.405673 360.262023 25.6193471 360.262023 25.6193471 357.670439 30.8514851 357.670439 30.8514851 355.173793 41.1391491 355.173793 41.1391491 357.670439 45.9257426 357.670439 45.9257426 360.302421 53.5541879 360.302421 53.5541879 357.670439 55.904335 357.670439 55.904335 355.173793 58.4290875 355.173793 58.4290875 352.628668 61 352.628668 61 350.261297 58.4290875 350.261297 58.4290875 347.588916 55.904335 347.588916 55.904335 345.177107 50.5357238 345.177107 50.5357238 342.858216 45.9257426 342.858216 45.9257426 340"></polygon>
                <g id="Group-83">
                    <path d="M312.292505,305.018383 L309.969387,305.018383 L309.969387,317.316593 L307.074612,317.316593 L307.074612,305.018383 L304.749467,305.018383 L304.749467,305.312842 C304.749467,308.998649 304.421068,314.150657 302.294584,317.365331 C301.795904,316.829213 300.62421,315.891008 299.995792,315.578273 C300.478255,314.861419 300.849224,314.030843 301.122889,313.15559 L299.341022,314.256256 C298.945727,313.257128 298.090268,311.652837 297.396982,310.497341 L299.341022,309.447445 C300.026199,310.450634 300.798545,311.774682 301.22222,312.727103 C301.923615,310.322697 301.994565,307.621802 301.994565,305.312842 L301.994565,296.397858 C304.723114,295.900325 307.743572,295.12458 309.572065,294.271665 L311.844504,296.448627 C309.795052,297.273111 307.196241,297.880304 304.749467,298.325038 L304.749467,302.256566 L312.292505,302.256566 L312.292505,305.018383 Z M293.26767,298.932232 C293.644721,299.752654 293.97312,300.837073 294.094749,301.53362 L292.298691,302.033184 L295.896888,302.033184 C296.269884,301.133563 296.719912,299.860284 296.977361,298.932232 L293.26767,298.932232 Z M296.867895,308.91945 L296.867895,317.231301 L293.997445,317.231301 L293.997445,308.91945 L289.345128,308.91945 L289.345128,306.4196 L293.997445,306.4196 L293.997445,304.490389 L289.197146,304.490389 L289.197146,302.033184 L291.621622,302.033184 C291.497965,301.285869 291.197947,300.209572 290.895901,299.427734 L292.943326,298.932232 L289.574197,298.932232 L289.574197,296.497365 L293.849463,296.497365 C293.624449,295.823157 293.346729,295.12458 293.097389,294.523478 L296.067169,293.79647 C296.448274,294.620954 296.894248,295.644451 297.196293,296.497365 L300.770165,296.497365 L300.770165,298.932232 L297.642267,298.932232 L299.673475,299.332289 C299.294397,300.280649 298.921401,301.259469 298.550432,302.033184 L301.147215,302.033184 L301.147215,304.490389 L296.867895,304.490389 L296.867895,306.4196 L300.743812,306.4196 L300.743812,308.91945 L296.867895,308.91945 Z M293.371055,310.379558 C292.744665,312.178801 291.725006,314.225795 290.849276,315.511258 C290.393167,315.1376 289.446486,314.479638 288.897127,314.150657 C289.744478,312.980946 290.571556,311.28121 291.098616,309.723626 L293.371055,310.379558 Z" id="Fill-4" fill="#008DCB"></path>
                    <mask id="mask-2" fill="white">
                        <use xlink:href="#path-1"></use>
                    </mask>
                    <g id="Clip-7"></g>
                    <path d="M346.266176,307.621599 L349.718418,307.621599 L349.718418,302.914326 L346.266176,302.914326 L346.266176,307.621599 Z M343.316668,310.346863 L343.316668,302.914326 L339.917132,302.914326 L339.917132,313.179756 L355.495805,313.179756 L355.495805,316.063418 L336.815587,316.063418 L336.815587,302.914326 L333.446458,302.914326 L333.446458,300.032694 L336.815587,300.032694 L336.815587,294.750719 L339.917132,294.750719 L339.917132,300.032694 L343.316668,300.032694 L343.316668,294.220694 L346.266176,294.220694 L346.266176,300.032694 L349.720445,300.032694 L349.720445,294.448137 L352.844289,294.448137 L352.844289,300.032694 L356.144494,300.032694 L356.144494,302.914326 L352.844289,302.914326 L352.844289,310.346863 L343.316668,310.346863 Z" id="Fill-6" fill="#008DCB" mask="url(#mask-2)"></path>
                    <path d="M397.658771,299.780881 C397.040489,298.611171 395.540396,296.854574 394.238963,295.577233 L396.462751,294.200386 C397.792563,295.394466 399.337254,297.051556 400.065002,298.225329 L397.658771,299.780881 Z M393.192952,304.214004 C393.890293,309.772161 395.216051,313.484368 397.21077,313.73415 C397.792563,313.784919 398.0865,312.531948 398.289216,309.745762 C398.838574,310.401693 400.164333,311.15307 400.715718,311.453621 C400.089328,316.280708 398.735189,317.436204 397.338481,317.365128 C393.113893,316.96304 391.137419,312.251704 390.235335,304.614062 L385.313407,305.290301 L384.889732,302.414762 L389.941398,301.736492 C389.763009,299.480331 389.612999,297.029218 389.542049,294.403461 L392.566562,294.403461 C392.611159,296.854574 392.714544,299.210241 392.890906,301.332373 L400.014323,300.408383 L400.442053,303.206753 L393.192952,304.214004 Z M386.335092,295.144684 C385.690458,296.675868 384.910003,298.225329 384.016029,299.752451 L384.016029,317.365128 L380.914484,317.365128 L380.914484,304.214004 C380.06308,305.265932 379.211675,306.214291 378.317701,307.016436 C378.044035,306.31989 377.184522,304.715599 376.667598,303.992653 C379.363712,301.683692 381.990903,297.999916 383.488969,294.220694 L386.335092,295.144684 Z" id="Fill-8" fill="#008DCB" mask="url(#mask-2)"></path>
                    <path d="M437.38226,310.854753 C436.676811,309.352 435.130093,306.894795 433.901638,305.065091 L436.230837,303.736981 C437.481591,305.461086 439.135748,307.845185 439.904039,309.2992 L437.38226,310.854753 Z M425.103792,312.20317 L429.083094,312.20317 L429.083094,307.296883 L425.103792,307.296883 L425.103792,312.20317 Z M425.103792,304.713771 L429.083094,304.713771 L429.083094,300.660398 L425.103792,300.660398 L425.103792,304.713771 Z M444.053622,297.880304 C444.053622,297.880304 444.053622,298.881463 444.029296,299.232783 C443.700897,310.422204 443.427232,314.4045 442.403519,315.73261 C441.706179,316.658631 441.004783,316.938874 440.00337,317.113518 C439.052635,317.231301 437.552541,317.213025 436.078801,317.164287 C436.032176,316.33168 435.628773,315.084801 435.109821,314.256256 C436.709245,314.4045 438.178932,314.4045 438.831675,314.4045 C439.334409,314.4045 439.599966,314.309055 439.928365,313.980074 C440.656113,313.179959 440.980458,309.423076 441.254123,300.581199 L435.902438,300.581199 C435.251722,302.085983 434.479377,303.4608 433.705004,304.541158 C433.311736,304.1675 432.456278,303.590768 431.779208,303.131819 L431.779208,314.832988 L425.103792,314.832988 L425.103792,316.658631 L422.407678,316.658631 L422.407678,298.050887 L425.231503,298.050887 C425.555848,296.797916 425.855866,295.199717 425.959251,294.021883 L429.206751,294.472709 C428.783076,295.727712 428.331021,296.980683 427.903291,298.050887 L431.779208,298.050887 L431.779208,302.108322 C433.236732,300.006498 434.432752,296.980683 435.152392,294.046252 L437.980271,294.694061 C437.726876,295.77645 437.38226,296.822285 437.003183,297.880304 L444.053622,297.880304 Z" id="Fill-9" fill="#008DCB" mask="url(#mask-2)"></path>
                    <path d="M483.507905,310.803172 C483.907255,310.803172 484.58027,310.752403 484.965429,310.646804 C485.007999,311.25806 485.060705,312.104881 485.13571,312.651153 C484.782985,312.801428 484.130242,312.801428 483.58291,312.801428 L481.484806,312.801428 C479.358323,312.801428 478.934647,312.005375 478.934647,309.998996 L478.934647,308.514519 L478.210954,308.514519 L478.210954,306.292881 L480.736787,306.292881 C480.558397,305.768948 480.309057,305.139416 480.110396,304.668282 L481.61049,304.189026 L478.083243,304.189026 L478.083243,301.965357 L479.437382,301.965357 C479.333997,301.031213 478.934647,299.705135 478.506918,298.701945 L480.181347,298.151612 C480.680027,299.181202 481.11181,300.56211 481.259792,301.461732 L479.806323,301.965357 L482.011866,301.965357 C482.336211,300.838292 482.73556,299.311169 482.885569,298.19832 L484.882315,298.728345 C484.533645,299.804641 484.184975,301.008875 483.891037,301.965357 L485.162063,301.965357 L485.162063,304.189026 L482.232826,304.189026 C482.534872,304.761697 482.859216,305.460274 482.9849,305.919223 L481.983486,306.292881 L485.036379,306.292881 L485.036379,308.514519 L481.286145,308.514519 L481.286145,310.025396 C481.286145,310.577759 481.365204,310.803172 481.758472,310.803172 L483.507905,310.803172 Z M473.505931,309.574569 C474.089751,311.077323 474.689788,313.008564 474.933047,314.255443 L473.011305,315.00682 C472.782237,313.711203 472.212607,311.727162 471.709873,310.195978 L473.505931,309.574569 Z M471.012532,310.299546 C471.308496,311.948514 471.586217,314.05643 471.657167,315.510446 L469.587443,316.062809 C469.530683,314.606763 469.313778,312.452139 469.060383,310.803172 L471.012532,310.299546 Z M488.306178,314.480856 C488.306178,315.804904 488.081163,316.487235 487.308818,316.913692 C486.532418,317.34218 485.435728,317.411226 483.836304,317.411226 C483.736974,316.682187 483.436955,315.563245 483.108556,314.884975 C483.964015,314.931683 484.912723,314.931683 485.230986,314.931683 C485.55533,314.907314 485.654661,314.809838 485.654661,314.480856 L485.654661,297.652048 L477.608889,297.652048 L477.608889,317.437625 L474.983726,317.437625 L474.983726,308.59981 L473.011305,309.446632 C472.936301,309.148112 472.857242,308.770393 472.739667,308.394705 C467.833956,309.19685 467.008904,309.446632 466.459546,309.672045 C466.360215,309.19685 465.93654,307.943879 465.636521,307.29607 C466.260885,307.141733 466.787944,306.542663 467.53191,305.592273 C467.833956,305.214554 468.433993,304.436777 469.135388,303.362512 C467.21162,303.589955 466.65618,303.736169 466.309536,303.912844 C466.1575,303.41328 465.782476,302.213108 465.484485,301.534838 C465.960866,301.408932 466.360215,300.939829 466.830515,300.18236 C467.337303,299.481752 468.811044,296.70572 469.686774,294.07184 L472.062598,295.070968 C471.162541,297.150454 470.015173,299.384276 468.782663,301.181488 L470.534124,301.061674 C471.162541,299.932578 471.792986,298.728345 472.307883,297.528173 L474.46072,298.93142 C473.059957,301.638407 471.257818,304.436777 469.388782,306.717307 L472.109222,306.34568 C471.914615,305.742548 471.709873,305.139416 471.511212,304.635791 L473.412682,303.912844 C474.012719,305.31406 474.663435,307.216871 474.983726,308.370336 L474.983726,295.070968 L488.306178,295.070968 L488.306178,314.480856 Z M468.511025,310.827541 C468.33669,313.032933 467.963693,315.408908 467.460959,316.913692 C467.008904,316.633449 465.93654,316.30853 465.387181,316.180592 C465.93654,314.706269 466.202097,312.48057 466.360215,310.476222 L468.511025,310.827541 Z" id="Fill-10" fill="#008DCB" mask="url(#mask-2)"></path>
                    <path d="M524.834873,298.932029 L524.636212,299.309748 C525.134892,300.154539 525.765337,301.029791 526.462677,301.882706 C527.186371,300.962777 527.788436,299.983956 528.287115,298.932029 L524.834873,298.932029 Z M524.190238,313.957533 L528.885126,313.957533 L528.885126,310.629137 L524.190238,310.629137 L524.190238,313.957533 Z M529.716258,308.121163 C528.556727,307.442893 527.539096,306.693547 526.584306,305.840633 C525.631544,306.717916 524.613913,307.442893 523.517223,308.121163 L529.716258,308.121163 Z M519.937271,306.947391 C521.662378,306.193983 523.310454,305.113626 524.711217,303.818008 C524.115234,303.084908 523.618581,302.335562 523.15639,301.608555 C522.688118,302.236056 522.189438,302.810757 521.690758,303.336721 C521.263029,302.889957 520.365,302.08578 519.687931,301.639016 L519.687931,303.239245 L517.184396,303.239245 L517.184396,306.167584 L519.937271,306.167584 L519.937271,306.947391 Z M513.657149,300.680503 L516.959382,300.680503 L516.959382,297.504413 L513.636878,297.504413 L513.657149,300.680503 Z M531.938019,297.104356 C531.161619,299.734174 529.98587,301.965966 528.461451,303.838316 C529.914919,304.983658 531.640027,305.992939 533.632719,306.61841 C533.034709,307.197173 532.183304,308.346576 531.792063,309.126383 L531.739358,309.099984 L531.739358,317.287959 L528.885126,317.287959 L528.885126,316.506121 L524.190238,316.506121 L524.190238,317.365128 L521.441418,317.365128 L521.441418,309.221829 L520.86368,309.475672 C520.660964,309.073584 520.316348,308.515128 519.937271,308.046026 L519.937271,308.771003 L517.184396,308.771003 L517.184396,312.10346 L520.139986,311.429252 L520.415679,314.055009 C516.912758,314.932292 513.115899,315.805513 510.288021,316.463476 L509.765015,313.604183 L510.890085,313.409231 L510.890085,304.983658 L513.312533,304.983658 L513.312533,312.903575 L514.56126,312.651762 L514.56126,303.239245 L511.060366,303.239245 L511.060366,294.947701 L519.687931,294.947701 L519.687931,301.16179 C521.512369,299.403162 523.014489,296.746944 523.841568,294.02168 L526.659311,294.728381 C526.462677,295.274652 526.264016,295.845292 526.039002,296.397655 L529.537869,296.397655 L530.064929,296.30018 L531.938019,297.104356 Z" id="Fill-11" fill="#008DCB" mask="url(#mask-2)"></path>
                    <path d="M574.888128,314.507662 C575.382753,314.507662 575.482084,313.786747 575.557089,311.256435 C576.209832,311.751937 577.288277,312.251501 578.058596,312.428176 C577.786957,315.829679 577.105834,317.165911 575.133413,317.165911 L572.964359,317.165911 C570.710165,317.165911 570.085802,316.280505 570.085802,313.155184 L570.085802,294.303751 L572.889355,294.303751 L572.889355,301.610382 C573.63332,300.156367 574.460399,298.302294 574.904345,296.874678 L577.559916,298.225125 C576.538231,300.081229 575.411133,302.189145 574.484724,303.513193 L572.889355,302.613572 L572.889355,305.420065 L573.608994,304.715396 C575.232744,306.067874 577.164621,307.919916 578.086976,309.12618 L576.179425,311.228004 C575.482084,310.224815 574.186733,308.770799 572.889355,307.49549 L572.889355,313.179553 C572.889355,314.333018 572.964359,314.507662 573.487365,314.507662 L574.888128,314.507662 Z M565.761883,294.303751 L568.486378,294.303751 L568.486378,305.18856 C568.486378,310.196385 567.837688,314.586862 562.911706,317.316187 C562.459651,316.682593 561.429857,315.683465 560.805493,315.236701 C563.759056,313.648656 564.985484,311.548863 565.45781,309.073381 C564.48275,309.871465 563.45701,310.675641 562.563035,311.374218 L561.030507,308.876398 C562.210311,308.17579 563.98407,306.999987 565.711205,305.84043 L565.761883,305.943998 L565.761883,305.164191 L565.761883,302.613572 L564.286116,303.513193 C563.884739,302.25616 562.98671,300.35538 562.11098,298.852627 L562.11098,301.508845 L560.037202,301.508845 L560.037202,304.741796 L561.940699,304.037126 L562.483976,306.666945 C561.687305,306.999987 560.864281,307.296476 560.037202,307.594996 L560.037202,314.25585 C560.037202,315.634727 559.783808,316.384073 559.035789,316.86333 C558.283715,317.342586 557.209323,317.436001 555.583546,317.411632 C555.514623,316.682593 555.18217,315.460083 554.811201,314.659968 C555.73761,314.706676 556.58496,314.706676 556.889033,314.682307 C557.18297,314.682307 557.316762,314.586862 557.316762,314.25585 L557.316762,308.644893 L555.011889,309.497807 L554.280087,306.693344 C555.131491,306.421224 556.165339,306.094274 557.316762,305.694216 L557.316762,301.508845 L554.608486,301.508845 L554.608486,298.75312 L557.316762,298.75312 L557.316762,294.045846 L560.037202,294.045846 L560.037202,298.75312 L562.060301,298.75312 L561.835287,298.377432 L564.032722,297.175229 C564.636813,298.087035 565.234824,299.210038 565.761883,300.209166 L565.761883,294.303751 Z" id="Fill-12" fill="#008DCB" mask="url(#mask-2)"></path>
                    <path d="M619.715179,299.879982 C619.319884,298.728548 618.316443,296.876506 617.371789,295.548397 L619.615848,294.370563 C620.590909,295.670242 621.718006,297.4045 622.095057,298.578273 L619.715179,299.879982 Z M621.770712,304.79033 C620.994312,307.198797 619.798292,309.546342 618.316443,311.627859 C618.742145,313.033136 619.216499,313.833251 619.743559,313.879958 C620.146962,313.879958 620.420628,312.708217 620.538203,310.450025 C621.016611,311.099864 622.216686,311.853272 622.693067,312.127423 C622.066676,316.487439 620.791597,317.462198 619.715179,317.437829 C618.219139,317.364722 617.069743,316.209226 616.222393,314.18254 C615.066916,315.384742 613.787782,316.38387 612.413372,317.165708 C611.914692,316.487439 611.045044,315.634524 610.272698,315.084192 C612.145788,314.208939 613.842515,312.830061 615.29193,311.172971 C614.817576,309.148315 614.468906,306.666742 614.215511,303.83791 L612.145788,304.089722 L611.839688,301.331967 L614.01685,301.061877 C613.895221,298.931623 613.787782,296.622662 613.741158,294.17155 L616.571064,294.17155 C616.591335,296.450049 616.670394,298.67981 616.802159,300.736958 L622.117355,300.081026 L622.419401,302.810351 L617.023119,303.488621 C617.16502,305.139619 617.343409,306.666742 617.538016,308.017189 C618.365094,306.591604 619.042164,305.066512 619.516518,303.537359 L621.770712,304.79033 Z M608.24149,298.153846 L609.567249,298.153846 L609.567249,296.523156 L608.24149,296.523156 L608.24149,298.153846 Z M606.891406,307.873006 L609.021945,307.873006 L609.021945,306.518497 L606.891406,306.518497 L606.891406,307.873006 Z M606.891406,304.465411 L609.021945,304.465411 L609.021945,303.165732 L606.891406,303.165732 L606.891406,304.465411 Z M606.139332,300.032288 L611.793063,300.032288 L611.793063,294.671114 L606.139332,294.671114 L606.139332,300.032288 Z M602.318148,307.873006 L604.395981,307.873006 L604.395981,306.518497 L602.318148,306.518497 L602.318148,307.873006 Z M602.318148,304.465411 L604.395981,304.465411 L604.395981,303.165732 L602.318148,303.165732 L602.318148,304.465411 Z M601.742437,298.153846 L603.041842,298.153846 L603.041842,296.523156 L601.742437,296.523156 L601.742437,298.153846 Z M599.613926,300.032288 L605.216978,300.032288 L605.216978,294.671114 L599.613926,294.671114 L599.613926,300.032288 Z M607.041416,313.908389 L607.041416,317.411429 L604.217591,317.411429 L604.217591,313.908389 L598.892259,313.908389 L598.892259,311.298878 L604.217591,311.298878 L604.217591,310.054029 L599.871374,310.054029 L599.871374,300.982678 L611.598456,300.982678 L611.598456,310.054029 L607.041416,310.054029 L607.041416,311.298878 L612.216738,311.298878 L612.216738,313.908389 L607.041416,313.908389 Z" id="Fill-13" fill="#008DCB" mask="url(#mask-2)"></path>
                    <polygon id="Fill-14" fill="#008DCB" mask="url(#mask-2)" points="462.685594 419 478.304811 419 478.304811 341.855948 462.685594 341.855948"></polygon>
                    <polygon id="Fill-15" fill="#008DCB" mask="url(#mask-2)" points="157.136213 77.8522189 136.266669 77.8522189 118.07094 77.8522189 97.201396 77.8522189 97.201396 93.8626355 118.07094 93.8626355 118.07094 154.998302 136.266669 154.998302 136.266669 93.8626355 157.136213 93.8626355"></polygon>
                    <polygon id="Fill-16" fill="#008DCB" mask="url(#mask-2)" points="253.140777 240.292152 232.267179 240.292152 214.07145 240.292152 193.201906 240.292152 193.201906 256.302568 214.07145 256.302568 214.07145 317.436204 232.267179 317.436204 232.267179 256.302568 253.140777 256.302568"></polygon>
                    <polygon id="Fill-17" fill="#008DCB" mask="url(#mask-2)" points="455.246549 341.795838 434.372951 341.795838 416.181277 341.795838 395.311733 341.795838 395.311733 357.806254 416.181277 357.806254 416.181277 418.93989 434.372951 418.93989 434.372951 357.806254 455.246549 357.806254"></polygon>
                    <polygon id="Fill-18" fill="#008DCB" mask="url(#mask-2)" points="478.71308 77.8522189 457.843536 77.8522189 439.649834 77.8522189 418.782317 77.8522189 418.782317 93.8626355 439.649834 93.8626355 439.649834 154.998302 457.843536 154.998302 457.843536 93.8626355 478.71308 93.8626355"></polygon>
                    <polygon id="Fill-19" fill="#008DCB" mask="url(#mask-2)" points="213.480738 93.8622294 213.480738 77.8518127 183.002487 77.8518127 164.808785 77.8518127 164.808785 93.8622294 164.808785 108.418631 164.808785 124.431078 164.808785 138.987479 164.808785 154.997896 183.002487 154.997896 213.480738 154.997896 213.480738 138.987479 183.002487 138.987479 183.002487 124.431078 208.388529 124.431078 208.388529 108.418631 183.002487 108.418631 183.002487 93.8622294"></polygon>
                    <polygon id="Fill-20" fill="#008DCB" mask="url(#mask-2)" points="254.411802 357.805848 254.411802 341.795431 223.933552 341.795431 205.73985 341.795431 205.73985 357.805848 205.73985 372.362249 205.73985 388.372666 205.73985 402.929067 205.73985 418.941514 223.933552 418.941514 254.411802 418.941514 254.411802 402.929067 223.933552 402.929067 223.933552 388.372666 249.323648 388.372666 249.323648 372.362249 223.933552 372.362249 223.933552 357.805848"></polygon>
                    <polygon id="Fill-21" fill="#008DCB" mask="url(#mask-2)" points="121.538183 256.242661 121.538183 240.232245 91.0599322 240.232245 72.8662307 240.232245 72.8662307 256.242661 72.8662307 270.801093 72.8662307 286.809479 72.8662307 301.367911 72.8662307 317.376297 91.0599322 317.376297 121.538183 317.376297 121.538183 301.367911 91.0599322 301.367911 91.0599322 286.809479 116.450028 286.809479 116.450028 270.801093 91.0599322 270.801093 91.0599322 256.242661"></polygon>
                    <polygon id="Fill-22" fill="#008DCB" mask="url(#mask-2)" points="121.538183 357.805848 121.538183 341.795431 91.0599322 341.795431 72.8662307 341.795431 72.8662307 357.805848 72.8662307 372.362249 72.8662307 388.372666 72.8662307 402.929067 72.8662307 418.941514 91.0599322 418.941514 121.538183 418.941514 121.538183 402.929067 91.0599322 402.929067 91.0599322 388.372666 116.450028 388.372666 116.450028 372.362249 91.0599322 372.362249 91.0599322 357.805848"></polygon>
                    <polygon id="Fill-23" fill="#008DCB" mask="url(#mask-2)" points="410.534236 93.8622294 410.534236 77.8518127 380.064093 77.8518127 361.866338 77.8518127 361.866338 93.8622294 361.866338 108.418631 361.866338 124.431078 361.866338 138.987479 361.866338 154.997896 380.064093 154.997896 410.534236 154.997896 410.534236 138.987479 380.064093 138.987479 380.064093 124.431078 405.450135 124.431078 405.450135 108.418631 380.064093 108.418631 380.064093 93.8622294"></polygon>
                    <polygon id="Fill-24" fill="#008DCB" mask="url(#mask-2)" points="72.264977 77.8522189 72.264977 119.338368 69.7513068 119.338368 69.7513068 114.241191 67.2092565 114.241191 67.2092565 109.267889 64.6672061 109.267889 64.6672061 103.872192 62.1251558 103.872192 62.1251558 101.140836 59.5831055 101.140836 59.5831055 96.0477203 57.0410552 96.0477203 57.0410552 90.950543 54.4949505 90.950543 54.4949505 85.8574272 51.9529002 85.8574272 51.9529002 80.7663422 49.412877 80.7663422 49.412877 77.8522189 46.8708267 77.8522189 31.25161 77.8522189 31.25161 154.998302 46.8708267 154.998302 46.8708267 109.267889 49.412877 109.267889 49.412877 114.241191 51.9529002 114.241191 51.9529002 119.338368 54.4949505 119.338368 54.4949505 124.429453 57.0410552 124.429453 57.0410552 129.522569 59.5831055 129.522569 59.5831055 134.619746 62.1251558 134.619746 62.1251558 137.349072 64.6672061 137.349072 64.6672061 142.744769 67.2092565 142.744769 67.2092565 147.718071 69.7513068 147.718071 69.7513068 152.815248 72.264977 152.815248 72.264977 154.998302 90.4586785 154.998302 90.4586785 77.8522189"></polygon>
                    <polygon id="Fill-25" fill="#008DCB" mask="url(#mask-2)" points="175.008408 341.795838 175.008408 383.279956 172.494737 383.279956 172.494737 378.18481 169.952687 378.18481 169.952687 373.213539 167.414691 373.213539 167.414691 367.81378 164.868586 367.81378 164.868586 365.086486 162.322482 365.086486 162.322482 359.989308 159.780431 359.989308 159.780431 354.894162 157.242435 354.894162 157.242435 349.799015 154.696331 349.799015 154.696331 344.705899 152.152253 344.705899 152.152253 341.795838 149.610203 341.795838 133.995041 341.795838 133.995041 418.93989 149.610203 418.93989 149.610203 373.213539 152.152253 373.213539 152.152253 378.18481 154.696331 378.18481 154.696331 383.279956 157.242435 383.279956 157.242435 388.373072 159.780431 388.373072 159.780431 393.468219 162.322482 393.468219 162.322482 398.561334 164.868586 398.561334 164.868586 401.29066 167.414691 401.29066 167.414691 406.688388 169.952687 406.688388 169.952687 411.661689 172.494737 411.661689 172.494737 416.754805 175.008408 416.754805 175.008408 418.93989 193.202109 418.93989 193.202109 341.795838"></polygon>
                    <polygon id="Fill-26" fill="#008DCB" mask="url(#mask-2)" points="604.499568 341.795838 604.499568 383.279956 601.989952 383.279956 601.989952 378.18481 599.443848 378.18481 599.443848 373.213539 596.901797 373.213539 596.901797 367.81378 594.355693 367.81378 594.355693 365.086486 591.817697 365.086486 591.817697 359.989308 589.271592 359.989308 589.271592 354.894162 586.729542 354.894162 586.729542 349.799015 584.187491 349.799015 584.187491 344.705899 581.647468 344.705899 581.647468 341.795838 579.101363 341.795838 563.486201 341.795838 563.486201 418.93989 579.101363 418.93989 579.101363 373.213539 581.647468 373.213539 581.647468 378.18481 584.187491 378.18481 584.187491 383.279956 586.729542 383.279956 586.729542 388.373072 589.271592 388.373072 589.271592 393.468219 591.817697 393.468219 591.817697 398.561334 594.355693 398.561334 594.355693 401.29066 596.901797 401.29066 596.901797 406.688388 599.443848 406.688388 599.443848 411.661689 601.989952 411.661689 601.989952 416.754805 604.499568 416.754805 604.499568 418.93989 622.69327 418.93989 622.69327 341.795838"></polygon>
                    <polygon id="Fill-27" fill="#008DCB" mask="url(#mask-2)" points="331.384235 77.8522189 331.384235 119.338368 328.870565 119.338368 328.870565 114.241191 326.32446 114.241191 326.32446 109.267889 323.78241 109.267889 323.78241 103.872192 321.24036 103.872192 321.24036 101.140836 318.702364 101.140836 318.702364 96.0477203 316.156259 96.0477203 316.156259 90.950543 313.610154 90.950543 313.610154 85.8574272 311.070131 85.8574272 311.070131 80.7663422 308.532135 80.7663422 308.532135 77.8522189 305.98603 77.8522189 290.366814 77.8522189 290.366814 154.998302 305.98603 154.998302 305.98603 109.267889 308.532135 109.267889 308.532135 114.241191 311.070131 114.241191 311.070131 119.338368 313.610154 119.338368 313.610154 124.429453 316.156259 124.429453 316.156259 129.522569 318.702364 129.522569 318.702364 134.619746 321.24036 134.619746 321.24036 137.349072 323.78241 137.349072 323.78241 142.744769 326.32446 142.744769 326.32446 147.718071 328.870565 147.718071 328.870565 152.815248 331.384235 152.815248 331.384235 154.998302 349.573882 154.998302 349.573882 77.8522189"></polygon>
                    <path d="M241.362003,90.9509492 L254.704726,90.9509492 L254.704726,93.8630417 L259.792881,93.8630417 L259.792881,96.2308938 L262.426153,96.2308938 L262.426153,106.419156 L259.792881,106.419156 L259.792881,109.057098 L254.704726,109.057098 L254.704726,111.603656 L241.362003,111.603656 L241.362003,90.9509492 Z M280.226587,147.720507 L280.226587,142.505547 L277.727107,142.505547 L277.727107,140.009758 L275.183029,140.009758 L275.183029,137.507876 L275.183029,134.894304 L272.553812,134.894304 L272.553812,129.661066 L270.050277,129.661066 L270.050277,124.429859 L267.421059,124.429859 L267.421059,122.064038 L272.553812,122.064038 L272.553812,119.424066 L275.04721,119.424066 L275.04721,116.879539 L277.680482,116.879539 L277.680482,111.603656 L280.222533,111.603656 L280.222533,90.9509492 L277.680482,90.9509492 L277.680482,85.9471863 L275.04721,85.9471863 L275.04721,83.4006284 L272.553812,83.4006284 L272.553812,80.9434234 L267.421059,80.9434234 L267.421059,77.852625 L241.362003,77.852625 L223.168301,77.852625 L223.168301,90.9509492 L223.168301,154.998708 L241.362003,154.998708 L241.362003,126.976417 L249.399666,126.976417 L249.399666,129.661066 L251.893064,129.661066 L251.893064,134.894304 L254.704726,134.894304 L254.704726,137.507876 L257.17988,137.507876 L257.17988,142.51367 L259.725985,142.51367 L259.725985,147.659585 L262.223438,147.659585 L262.223438,152.632887 L264.641832,152.632887 L264.641832,154.998708 L282.859859,154.998708 L282.859859,147.720507 L280.226587,147.720507 Z" id="Fill-28" fill="#008DCB" mask="url(#mask-2)"></path>
                    <path d="M285.333797,354.894568 L298.676521,354.894568 L298.676521,357.80666 L303.764676,357.80666 L303.764676,360.172482 L306.397948,360.172482 L306.397948,370.360744 L303.764676,370.360744 L303.764676,372.998686 L298.676521,372.998686 L298.676521,375.545244 L285.333797,375.545244 L285.333797,354.894568 Z M324.198382,411.662095 L324.198382,406.447135 L321.698902,406.447135 L321.698902,403.953376 L319.154824,403.953376 L319.154824,401.449464 L319.154824,398.835892 L316.525606,398.835892 L316.525606,393.604685 L314.022072,393.604685 L314.022072,388.371447 L311.390827,388.371447 L311.390827,386.007657 L316.525606,386.007657 L316.525606,383.367685 L319.019005,383.367685 L319.019005,380.825188 L321.652277,380.825188 L321.652277,375.545244 L324.194327,375.545244 L324.194327,354.894568 L321.652277,354.894568 L321.652277,349.890805 L319.019005,349.890805 L319.019005,347.346278 L316.525606,347.346278 L316.525606,344.887042 L311.390827,344.887042 L311.390827,341.796244 L285.333797,341.796244 L267.140096,341.796244 L267.140096,354.894568 L267.140096,418.940296 L285.333797,418.940296 L285.333797,390.918005 L293.37146,390.918005 L293.37146,393.604685 L295.864859,393.604685 L295.864859,398.835892 L298.676521,398.835892 L298.676521,401.449464 L301.151675,401.449464 L301.151675,406.453227 L303.69778,406.453227 L303.69778,411.603204 L306.195233,411.603204 L306.195233,416.576505 L308.613627,416.576505 L308.613627,418.940296 L326.831654,418.940296 L326.831654,411.662095 L324.198382,411.662095 Z" id="Fill-29" fill="#008DCB" mask="url(#mask-2)"></path>
                    <polygon id="Fill-30" fill="#008DCB" mask="url(#mask-2)" points="23.5024108 186.170079 23.5024108 178.284685 8.60688779 178.284685 0.248934434 178.284685 0.248934434 186.170079 0.248934434 193.878799 0.248934434 201.762162 0.248934434 217.222246 8.60688779 217.222246 8.60688779 201.762162 21.0799625 201.762162 21.0799625 193.878799 8.60688779 193.878799 8.60688779 186.170079"></polygon>
                    <path d="M40.1471644,209.337258 L40.1471644,206.672917 L37.8787798,206.672917 L37.8787798,201.762568 L35.2455075,201.762568 L35.2455075,193.860928 L37.8787798,193.860928 L37.8787798,188.838888 L40.1471644,188.838888 L40.1471644,186.170486 L48.0490082,186.170486 L48.0490082,188.838888 L50.31942,188.838888 L50.31942,193.860928 L52.9547194,193.860928 L52.9547194,201.762568 L50.31942,201.762568 L50.31942,206.672917 L48.0490082,206.672917 L48.0490082,209.337258 L40.1471644,209.337258 Z M58.2172095,188.838888 L58.2172095,183.741711 L55.5413671,183.741711 L55.5413671,181.152507 L52.9547194,181.152507 L52.9547194,178.285091 L35.2455075,178.285091 L35.2455075,181.152507 L32.608181,181.152507 L32.608181,183.741711 L29.9323385,183.741711 L29.9323385,188.838888 L27.347718,188.838888 L27.347718,206.672917 L29.9323385,206.672917 L29.9323385,211.764002 L32.608181,211.764002 L32.608181,214.357267 L35.2455075,214.357267 L35.2455075,217.222652 L52.9547194,217.222652 L52.9547194,214.357267 L55.5879916,214.357267 L55.5879916,211.764002 L58.2658612,211.764002 L58.2658612,206.672917 L60.8545361,206.672917 L60.8545361,188.838888 L58.2172095,188.838888 Z" id="Fill-31" fill="#008DCB" mask="url(#mask-2)"></path>
                    <path d="M75.0204866,196.482421 L75.0204866,186.170283 L82.5310898,186.170283 L82.5310898,188.773701 L85.1319276,188.773701 L85.1319276,193.879002 L82.5310898,193.879002 L82.5310898,196.482421 L75.0204866,196.482421 Z M92.8655177,211.82066 L92.8655177,206.790497 L90.2160282,206.790497 L90.2160282,201.762365 L87.7935799,201.762365 L87.7935799,199.394513 L90.2160282,199.394513 L92.8817349,199.394513 L92.8817349,183.623725 L90.2160282,183.623725 L90.2160282,181.077167 L87.7935799,181.077167 L87.7935799,178.284888 L75.0204866,178.284888 L67.2727064,178.284888 L67.2727064,186.170283 L67.2727064,217.222449 L75.0204866,217.222449 L75.0204866,201.762365 L80.0721528,201.762365 L80.0721528,206.790497 L82.7256965,206.790497 L82.7256965,211.82066 L85.1440905,211.82066 L85.1440905,217.222449 L95.287966,217.222449 L95.287966,211.82066 L92.8655177,211.82066 Z" id="Fill-32" fill="#008DCB" mask="url(#mask-2)"></path>
                    <path d="M533.739347,390.981974 L533.739347,395.800939 L531.197297,395.800939 L531.197297,398.804415 L528.472803,398.804415 L528.472803,400.757994 L525.746281,400.757994 L525.746281,403.808178 L515.756469,403.808178 L515.756469,400.757994 L513.03603,400.757994 L513.03603,398.804415 L510.311536,398.804415 L510.311536,395.800939 L507.769485,395.800939 L507.769485,390.981974 L505.042964,390.981974 L505.042964,368.601101 L507.769485,368.601101 L507.769485,363.780105 L510.311536,363.780105 L510.311536,360.77866 L513.03603,360.77866 L513.03603,358.82305 L515.756469,358.82305 L515.756469,355.772866 L525.746281,355.772866 L525.746281,358.82305 L528.472803,358.82305 L528.472803,360.77866 L531.197297,360.77866 L531.197297,363.780105 L533.739347,363.780105 L533.739347,368.601101 L536.467895,368.601101 L536.467895,390.981974 L533.739347,390.981974 Z M551.357337,362.959683 L551.357337,358.957079 L548.452426,358.957079 L548.452426,353.861933 L545.271823,353.861933 L545.271823,350.771134 L543.546715,350.771134 L543.546715,348.224576 L540.822221,348.224576 L540.822221,345.856724 L536.467895,345.856724 L536.467895,343.12943 L531.197297,343.12943 L531.197297,340.582872 L525.926698,340.582872 L515.574026,340.582872 L510.311536,340.582872 L510.311536,343.12943 L505.042964,343.12943 L505.042964,345.856724 L500.682557,345.856724 L500.682557,348.224576 L497.96009,348.224576 L497.96009,350.771134 L496.23701,350.771134 L496.23701,353.861933 L493.058433,353.861933 L493.058433,358.957079 L490.151495,358.957079 L490.151495,362.959683 L487.427001,362.959683 L487.427001,363.867428 L487.427001,395.709555 L487.427001,396.621361 L490.151495,396.621361 L490.151495,400.619904 L493.058433,400.619904 L493.058433,405.717081 L496.23701,405.717081 L496.23701,408.80991 L497.96009,408.80991 L497.96009,411.356468 L500.682557,411.356468 L500.682557,413.72432 L505.042964,413.72432 L505.042964,416.453645 L510.311536,416.453645 L510.311536,419.000203 L515.574026,419.000203 L525.926698,419.000203 L531.197297,419.000203 L531.197297,416.453645 L536.467895,416.453645 L536.467895,413.72432 L540.822221,413.72432 L540.822221,411.356468 L543.546715,411.356468 L543.546715,408.80991 L545.271823,408.80991 L545.271823,405.717081 L548.452426,405.717081 L548.452426,400.619904 L551.357337,400.619904 L551.357337,396.621361 L554.081831,396.621361 L554.081831,395.709555 L554.081831,363.867428 L554.081831,362.959683 L551.357337,362.959683 Z" id="Fill-33" fill="#008DCB" mask="url(#mask-2)"></path>
                    <path d="M373.510915,386.365272 L357.506539,386.365272 L357.506539,383.438964 L360.695251,383.438964 L360.695251,373.364423 L362.655508,373.364423 L362.655508,365.377492 L365.755026,365.377492 L368.895086,365.377492 L368.895086,375.882551 L370.869534,375.882551 L370.869534,383.438964 L372.031093,383.438964 L373.510915,383.438964 L373.510915,386.365272 Z M398.027308,412.673611 L398.027308,402.355381 L395.81771,402.355381 L395.81771,394.494356 L392.876311,394.494356 L392.876311,386.509455 L390.425482,386.509455 L390.425482,378.524554 L387.696934,378.524554 L387.696934,370.663529 L385.274486,370.663529 L385.274486,363.044162 L382.819603,363.044162 L382.819603,354.935386 L380.368775,354.935386 L380.368775,347.322112 L376.207029,347.322112 L376.207029,341.91423 L376.144187,341.91423 L356.58013,341.91423 L356.521342,341.91423 L356.521342,347.322112 L352.355542,347.322112 L352.355542,354.935386 L349.904714,354.935386 L349.904714,363.044162 L347.447804,363.044162 L347.447804,370.663529 L345.027383,370.663529 L345.027383,378.524554 L342.300861,378.524554 L342.300861,386.509455 L339.850033,386.509455 L339.850033,394.494356 L336.902552,394.494356 L336.902552,402.355381 L334.699036,402.355381 L334.699036,412.673611 L331.996841,412.673611 L331.996841,418.940499 L334.699036,418.940499 L336.902552,418.940499 L339.850033,418.940499 L349.904714,418.940499 L349.904714,412.673611 L352.355542,412.673611 L352.355542,402.355381 L355.298969,402.355381 L355.298969,399.406735 L357.506539,399.406735 L375.217778,399.406735 L376.144187,399.406735 L376.144187,402.32492 L377.427375,402.32492 L377.427375,402.355381 L378.653803,402.355381 L378.653803,412.673611 L380.368775,412.673611 L381.777646,412.673611 L381.777646,418.940499 L382.819603,418.940499 L386.462398,418.940499 L392.876311,418.940499 L395.81771,418.940499 L398.027308,418.940499 L400.723422,418.940499 L400.723422,412.673611 L398.027308,412.673611 Z" id="Fill-34" fill="#008DCB" mask="url(#mask-2)"></path>
                    <polygon id="Fill-35" fill="#008DCB" mask="url(#mask-2)" points="188.054153 313.867164 188.054153 309.923452 185.449261 309.923452 185.449261 305.98177 182.848423 305.98177 182.848423 302.038058 180.241504 302.038058 180.241504 296.916512 177.636612 296.916512 177.636612 294.156725 175.035774 294.156725 175.035774 288.789458 172.430882 288.789458 172.430882 284.063908 169.975999 284.063908 169.975999 282.155005 169.975999 282.096113 169.975999 281.858516 169.975999 276.903491 169.975999 276.844599 169.975999 276.604971 172.430882 276.604971 172.430882 271.353457 175.035774 271.353457 175.035774 266.103973 177.636612 266.103973 177.636612 260.852459 180.241504 260.852459 180.241504 255.596883 182.848423 255.596883 182.848423 250.345369 185.449261 250.345369 185.449261 247.87598 185.449261 245.248192 188.295384 245.248192 188.295384 239.996678 185.449261 239.996678 170.253719 239.996678 167.405569 239.996678 167.405569 242.624466 167.405569 245.093855 164.924333 245.093855 164.924333 250.345369 162.319441 250.345369 162.319441 255.596883 159.716576 255.596883 159.716576 260.852459 157.176553 260.852459 157.176553 255.834481 154.569634 255.834481 154.569634 250.580936 151.968796 250.580936 151.968796 245.329422 149.483506 245.329422 149.483506 242.855971 146.63941 242.855971 146.63941 240.232245 128.597745 240.232245 128.597745 245.48579 131.443868 245.48579 131.443868 248.111547 131.443868 250.580936 134.04876 250.580936 134.04876 255.834481 136.651625 255.834481 136.651625 261.081934 139.252463 261.081934 139.252463 266.337509 141.857355 266.337509 141.857355 271.589023 144.462247 271.589023 144.462247 276.844599 146.913075 276.844599 146.913075 276.903491 146.913075 281.858516 146.913075 282.096113 146.913075 282.155005 146.913075 284.002985 144.462247 284.002985 144.462247 288.726505 141.857355 288.726505 141.857355 294.095803 139.252463 294.095803 139.252463 296.853558 136.651625 296.853558 136.651625 301.979166 134.04876 301.979166 134.04876 305.920848 131.443868 305.920848 131.443868 309.86253 128.838976 309.86253 128.838976 313.810304 126.234084 313.810304 126.234084 317.376297 146.700224 317.376297 146.700224 315.233858 149.301062 315.233858 149.301062 309.86253 151.905954 309.86253 151.905954 307.346433 151.905954 305.920848 151.905954 304.436371 154.506792 304.436371 154.506792 301.979166 157.111684 301.979166 157.111684 296.853558 159.781445 296.853558 159.781445 299.554453 162.382283 299.554453 162.382283 302.038058 162.382283 303.128569 162.382283 304.497294 164.987175 304.497294 164.987175 305.98177 164.987175 307.407355 164.987175 309.923452 167.592067 309.923452 167.592067 315.296811 170.192905 315.296811 170.192905 317.437219 190.654991 317.437219 190.654991 313.867164"></polygon>
                    <path d="M13.0716931,3.91045304 L12.4169225,4.49936994 C11.7925593,3.92263753 11.1296802,3.37433559 10.4242308,2.85649487 C9.55255483,3.47587299 8.58357552,4.02214418 7.52337431,4.49936994 L7.07537341,3.7520547 C8.04029842,3.35605886 8.91197437,2.88289459 9.69648272,2.34474639 C9.04373934,1.87564362 8.3889688,1.44715581 7.75244264,1.04709847 L8.31193697,0.464273811 L10.4019321,1.82893642 C10.9593993,1.38217187 11.510785,0.846054421 12.0601436,0.222614807 L12.8405976,0.647041124 C12.2790761,1.27657298 11.7053917,1.83299791 11.1013,2.32037742 C11.7337719,2.77526495 12.3905696,3.30325941 13.0716931,3.91045304 L13.0716931,3.91045304 Z M13.136562,8.50806635 L12.4858458,9.090891 C11.8797269,8.53040458 11.1965762,7.95570291 10.4242308,7.36069377 C9.47755016,8.04302507 8.45383771,8.63803422 7.37539211,9.12135222 L6.92941837,8.36794474 C7.93488644,7.95570291 8.86940415,7.44395444 9.73905294,6.8448838 C9.01738634,6.2986126 8.33828996,5.83357133 7.70784527,5.43351399 L8.26531244,4.85068933 C9.09847248,5.39289903 9.82013908,5.88637078 10.4242308,6.33110457 C10.9918337,5.88637078 11.537138,5.36243781 12.0601436,4.75930568 L12.7372128,5.25074667 C12.2932662,5.75437216 11.7520162,6.28033587 11.1013,6.82254557 C11.8026951,7.35663227 12.4797643,7.9211802 13.136562,8.50806635 L13.136562,8.50806635 Z M19.7248105,13.7413038 L18.7862384,13.7413038 L18.7862384,10.6708129 L1.5635434,10.6708129 L1.5635434,13.7413038 L0.616862771,13.7413038 L0.616862771,9.84429848 L1.92032239,9.84429848 L1.76220443,1.40044861 C3.28865092,1.21158905 4.7542828,0.829808438 6.14085571,0.273383506 L6.51790624,0.955714809 C5.4718951,1.42278683 4.20897855,1.78832146 2.71902082,2.05434944 L2.7413195,3.98152922 L6.5888566,3.98152922 L6.5888566,4.80398213 L2.76361819,4.80398213 L2.78997119,6.86722202 L6.56047646,6.86722202 L6.56047646,7.68967493 L2.78997119,7.68967493 L2.83659571,9.84429848 L17.3368238,9.84429848 L17.405747,7.68967493 L13.6048344,7.68967493 L13.6048344,6.86722202 L17.4239914,6.86722202 L17.4969689,4.80398213 L13.6048344,4.80398213 L13.6048344,3.98152922 L17.5152133,3.98152922 L17.563865,1.98733476 L13.4000919,1.98733476 L13.4000919,1.1587896 L18.5247357,1.1587896 L18.2530971,9.84429848 L19.7248105,9.84429848 L19.7248105,13.7413038 Z M20.326875,16.7386877 L10.6553263,16.7386877 L10.6553263,19.5147201 C10.6553263,20.0102226 10.4809911,20.3351423 10.136375,20.4854176 C9.78770463,20.643816 9.00319627,20.7189536 7.77676848,20.7189536 L6.41046711,20.6864617 L6.14085571,19.8335475 C6.94360844,19.8843162 7.62067767,19.902593 8.17611769,19.902593 C8.89981145,19.902593 9.33564942,19.8721317 9.48565877,19.8112093 C9.64174958,19.7502869 9.72283572,19.612196 9.72283572,19.3989675 L9.72283572,16.7386877 L0.000608146012,16.7386877 L0.000608146012,15.9121733 L9.72283572,15.9121733 L9.72283572,14.9922445 C11.37902,14.3688049 12.8000545,13.763642 13.9879664,13.1767558 L3.97991021,13.1767558 L3.97991021,12.3522722 L15.8367303,12.3522722 L15.8367303,13.1767558 C14.0913512,14.0682542 12.3601623,14.8297846 10.6553263,15.4816547 L10.6553263,15.9121733 L20.326875,15.9121733 L20.326875,16.7386877 Z" id="Fill-36" fill="#008DCB" mask="url(#mask-2)"></path>
                    <path d="M46.6443937,20.1206953 L26.2654208,20.1206953 L26.2654208,19.2332584 L36.3383459,19.2332584 L36.3383459,12.4932061 L28.6777333,12.4932061 L28.6777333,11.6098307 L36.3383459,11.6098307 L36.3383459,5.8587526 L29.7095544,5.8587526 C28.8824758,7.47928945 27.8851164,8.8967515 26.7134217,10.109108 L25.9897279,9.46739167 C28.1060761,7.30870662 29.6467126,4.50627448 30.5974476,1.07024899 L31.5116937,1.3078465 C31.1326161,2.56894096 30.6683979,3.78738972 30.1312023,4.96522352 L36.3383459,4.96522352 L36.3383459,0.199058132 L37.2769179,0.199058132 L37.2769179,4.96522352 L46.3159948,4.96522352 L46.3159948,5.8587526 L37.2769179,5.8587526 L37.2769179,11.6098307 L45.2355221,11.6098307 L45.2355221,12.4932061 L37.2769179,12.4932061 L37.2769179,19.2332584 L46.6443937,19.2332584 L46.6443937,20.1206953 Z" id="Fill-37" fill="#008DCB" mask="url(#mask-2)"></path>
                    <path d="M72.7044638,8.06109873 L67.9021375,8.06109873 L67.9021375,20.7065661 L66.9635655,20.7065661 L66.9635655,8.06109873 L62.1734021,8.06109873 L62.1734021,7.17975413 L66.9635655,7.17975413 L66.9635655,0.395025306 L67.9021375,0.395025306 L67.9021375,7.17975413 L72.7044638,7.17975413 L72.7044638,8.06109873 Z M54.4641378,18.4158824 L59.7347366,18.4158824 L59.7347366,14.2305109 L54.4641378,14.2305109 L54.4641378,18.4158824 Z M60.6692543,20.5420755 L59.7347366,20.5420755 L59.7347366,19.272858 L54.4641378,19.272858 L54.4641378,20.7492118 L53.5296201,20.7492118 L53.5296201,13.3613508 L60.6692543,13.3613508 L60.6692543,20.5420755 Z M53.5052942,10.8533771 L60.6874986,10.8533771 L60.6874986,9.97812477 L53.5052942,9.97812477 L53.5052942,10.8533771 Z M53.5052942,7.53919651 L60.6874986,7.53919651 L60.6874986,6.68222089 L53.5052942,6.68222089 L53.5052942,7.53919651 Z M61.8409489,4.13972448 L52.3741427,4.13972448 L52.3741427,3.28071811 L56.8946947,3.28071811 C56.5987303,2.33032808 56.1101863,1.41243002 55.44528,0.535146913 L56.4081779,0.153366303 C56.9696994,0.904743036 57.5008135,1.94245523 57.9994933,3.28071811 L61.8409489,3.28071811 L61.8409489,4.13972448 Z" id="Fill-38" fill="#008DCB" mask="url(#mask-2)"></path>
                    <path d="M94.8249641,4.78103468 L94.0688359,5.27450642 C93.6857039,4.68152803 93.2255401,4.14744133 92.6984802,3.69255379 L93.4383912,3.22345102 C93.9066637,3.6296006 94.3688546,4.14744133 94.8249641,4.78103468 L94.8249641,4.78103468 Z M98.2974779,2.85791639 L90.6956527,2.85791639 C89.9030357,3.78799894 89.0556856,4.6165441 88.1495481,5.36589008 L87.4258543,4.75869645 C89.100283,3.47526376 90.4300956,1.95829506 91.4274551,0.222005583 L92.299131,0.559109739 C91.9382977,1.18661085 91.6180075,1.69023633 91.3362332,2.05374021 L98.2974779,2.05374021 L98.2974779,2.85791639 Z M85.412891,4.80540365 L84.6182469,5.2988754 C84.2188977,4.70792775 83.734408,4.19211778 83.1607236,3.75144548 L83.9371234,3.25594299 C84.527025,3.73926099 85.0216504,4.25710171 85.412891,4.80540365 L85.412891,4.80540365 Z M81.447779,12.9832256 L94.8452357,12.9832256 L94.8452357,11.3667502 L81.447779,11.3667502 L81.447779,12.9832256 Z M81.447779,10.6255272 L94.8452357,10.6255272 L94.8452357,9.0232671 L81.447779,9.0232671 L81.447779,10.6255272 Z M81.447779,8.24955214 L94.8452357,8.24955214 L94.8452357,6.66150726 L81.447779,6.66150726 L81.447779,8.24955214 Z M80.5213699,13.7833402 L95.787862,13.7833402 L95.787862,5.85936183 L80.5213699,5.85936183 L80.5213699,13.7833402 Z M98.3177494,16.8761693 L92.2484522,16.8761693 L92.2484522,20.7284981 L91.3139345,20.7284981 L91.3139345,16.8761693 L85.1554426,16.8761693 C84.7013602,18.9272247 82.8525963,20.2269034 79.6050966,20.7752054 L79.094254,19.9182297 C82.0924138,19.5019264 83.7790054,18.4926447 84.1418659,16.8761693 L78.0016183,16.8761693 L78.0016183,16.0679317 L84.2614679,16.0679317 C84.3101196,15.5907059 84.328364,15.0830189 84.328364,14.5408092 L85.2628817,14.5408092 L85.2203115,16.0679317 L91.3139345,16.0679317 L91.3139345,14.5408092 L92.2484522,14.5408092 L92.2484522,16.0679317 L98.3177494,16.0679317 L98.3177494,16.8761693 Z M88.0117017,2.85791639 L81.35453,2.85791639 C80.509207,3.95045878 79.5746893,4.89881806 78.553004,5.69690199 L77.8678262,5.01253994 C79.6294225,3.731138 80.971398,2.14918537 81.8896985,0.272774281 L82.7857003,0.599724697 C82.4877087,1.16224187 82.1957986,1.65368287 81.9180786,2.05374021 L88.0117017,2.05374021 L88.0117017,2.85791639 Z" id="Fill-39" fill="#008DCB" mask="url(#mask-2)"></path>
                    <path d="M123.981106,10.0859575 L123.162136,10.3601085 L122.908742,9.21679738 C121.550549,9.46251787 120.064645,9.65340818 118.457113,9.79962203 L118.311158,9.12135222 C119.630835,7.73435139 120.632248,6.51184114 121.313372,5.45788296 C120.072754,5.65486551 119.020661,5.79092562 118.148985,5.8579403 L117.970596,5.15124003 C119.138236,3.41495055 119.973423,1.90407409 120.44575,0.600333922 L121.240394,0.906976859 C120.654547,2.26960872 119.894364,3.62208684 118.97201,4.96644196 C119.803143,4.90145803 120.774149,4.7816439 121.887056,4.58872285 C122.132342,4.14805055 122.41817,3.58147188 122.738461,2.90320207 L123.533105,3.25655221 C122.331003,5.51271316 120.982946,7.40943172 119.486907,8.9507694 C120.466022,8.849232 121.538386,8.67864917 122.714135,8.46338989 C122.590478,7.99022563 122.410062,7.49066164 122.170858,6.96063643 L122.93104,6.72710042 C123.433774,7.81355056 123.786499,8.93249267 123.981106,10.0859575 L123.981106,10.0859575 Z M115.900872,10.315432 L115.061631,10.5469373 C114.986626,10.122511 114.89135,9.68996164 114.779856,9.23710485 C113.733845,9.40768768 112.270241,9.56608602 110.393097,9.70620763 L110.281603,9.02387632 C111.347886,7.80948906 112.270241,6.5951018 113.068939,5.39086828 C112.249969,5.58582008 111.287071,5.76655665 110.194436,5.93307798 L109.993747,5.27511565 C111.00327,3.64036357 111.826294,2.02591897 112.454712,0.439904836 L113.283817,0.734363285 C112.677698,2.10511814 111.92157,3.52867243 111.021514,5.01314917 C111.996575,4.88521205 112.860142,4.71462922 113.634515,4.49936994 C114.044,3.8028234 114.380507,3.20984501 114.637956,2.70825027 L115.408274,3.10830761 C114.119004,5.38071454 112.791219,7.29367909 111.426945,8.85938574 C112.282404,8.82486303 113.334496,8.69489516 114.597413,8.48369737 C114.331856,7.53939959 114.153466,6.98094391 114.056163,6.79817659 L114.822427,6.51184114 C115.187314,7.35054003 115.548148,8.61975748 115.900872,10.315432 L115.900872,10.315432 Z M124.118952,16.8097639 C124.01354,17.6403398 123.835151,18.4079625 123.589865,19.1085705 C123.340525,19.8030863 123.105375,20.2559431 122.884416,20.4508949 C122.66751,20.643816 122.410062,20.7372304 122.120179,20.7372304 C121.234313,20.7372304 120.16803,19.7381024 118.929439,17.7296927 C117.488133,19.0415558 115.943443,20.0731758 114.285231,20.8225218 L113.703438,20.0528683 C115.507605,19.2730611 117.102974,18.2333182 118.481439,16.9336395 C117.788152,15.6034996 117.301635,14.1677608 117.02797,12.6365769 L112.454712,12.6365769 L112.345245,14.1636993 C114.145357,15.3882403 115.319079,16.2269392 115.852221,16.6980727 L115.290699,17.4758492 C114.522408,16.704165 113.496668,15.8959273 112.225643,15.0572284 C111.838457,17.2565284 110.816772,19.2202617 109.160587,20.9443667 L108.432839,20.3249885 C110.488373,18.3287633 111.518167,15.7639287 111.518167,12.6365769 L109.255864,12.6365769 L109.255864,11.7674168 L116.882015,11.7674168 C116.399552,8.27249959 116.109669,4.43438601 116.022502,0.244953035 L116.961074,0.244953035 C116.993508,4.42220152 117.269201,8.26640735 117.796261,11.7674168 L120.44575,11.7674168 C120.255198,11.3368982 120.030184,10.8718569 119.760572,10.3824467 L120.611977,10.0270658 C120.761986,10.2849708 121.039706,10.8596724 121.459327,11.7674168 L124.052056,11.7674168 L124.052056,12.6365769 L117.970596,12.6365769 C118.228044,13.9768705 118.617258,15.1871963 119.134182,16.2695849 C120.001804,15.3537176 120.719416,14.3403744 121.284992,13.223463 L122.108016,13.6925658 C121.479598,14.8541536 120.632248,15.9913725 119.553803,17.0981301 C120.022075,17.9083985 120.508592,18.5541763 121.019435,19.0374943 C121.530277,19.5147201 121.870839,19.7523176 122.033011,19.7523176 C122.56818,19.7523176 122.975638,18.629314 123.271602,16.3853376 L124.118952,16.8097639 Z M109.924824,10.1773411 L109.184913,10.8535802 C108.745021,9.89100569 108.183499,8.96295388 107.518593,8.0613018 L107.518593,20.7067691 L106.580021,20.7067691 L106.580021,7.49878463 C106.040798,9.91943616 105.221828,12.1167054 104.121084,14.0966846 L103.439961,13.4102918 C104.623818,11.4303126 105.641449,8.83095527 106.484745,5.6203428 L103.697409,5.6203428 L103.697409,4.75930568 L106.580021,4.75930568 L106.580021,0.393197633 L107.518593,0.393197633 L107.518593,4.75930568 L109.371411,4.75930568 L109.371411,5.6203428 L107.518593,5.6203428 L107.518593,6.91392923 C108.524061,8.07957854 109.326814,9.17009017 109.924824,10.1773411 L109.924824,10.1773411 Z" id="Fill-40" fill="#008DCB" mask="url(#mask-2)"></path>
                    <path d="M134.3354,14.7227642 L140.301312,14.7227642 L140.301312,9.14633042 L134.3354,9.14633042 L134.3354,14.7227642 Z M150.088408,15.6000473 L141.239884,15.6000473 L141.239884,20.7073784 L140.301312,20.7073784 L140.301312,15.6000473 L129.780386,15.6000473 L129.780386,14.7227642 L133.396828,14.7227642 L133.396828,8.27717031 L140.301312,8.27717031 L140.301312,3.75266393 L134.444866,3.75266393 C133.317769,5.43818471 132.026472,6.90032322 130.581112,8.13907945 L129.883771,7.49736311 C131.8643,5.86261102 133.741444,3.41759052 135.525339,0.178547577 L136.437558,0.462852287 C136.07267,1.16142957 135.598316,1.971698 135.008415,2.87944232 L149.036316,2.87944232 L149.036316,3.75266393 L141.239884,3.75266393 L141.239884,8.27717031 L148.683591,8.27717031 L148.683591,9.14633042 L141.239884,9.14633042 L141.239884,14.7227642 L150.088408,14.7227642 L150.088408,15.6000473 Z" id="Fill-41" fill="#008DCB" mask="url(#mask-2)"></path>
                    <path d="M170.562049,8.20792181 C170.118103,8.82729992 169.428871,9.50353898 168.502462,10.2488235 L167.770659,9.7756592 C168.547059,9.20501904 169.232237,8.5592412 169.826193,7.83223344 L170.562049,8.20792181 Z M165.755669,11.0184769 L172.368243,11.0184769 L172.368243,7.21894756 L165.755669,7.21894756 L165.755669,11.0184769 Z M169.104526,3.86212124 C167.653084,3.17369769 166.337462,2.34312179 165.17793,1.38257802 C164.032588,2.32078357 162.785889,3.14932872 161.443914,3.86212124 L169.104526,3.86212124 Z M162.761563,9.75535173 L162.088548,10.220393 C161.419588,9.47917001 160.73441,8.82120768 160.043151,8.25056751 L160.746573,7.84847942 C161.472294,8.39271987 162.141254,9.02631322 162.761563,9.75535173 L162.761563,9.75535173 Z M159.274859,18.8023337 L171.279662,18.8023337 L171.279662,16.9827836 L159.274859,16.9827836 L159.274859,18.8023337 Z M159.274859,16.1562692 L171.279662,16.1562692 L171.279662,14.3062578 L159.274859,14.3062578 L159.274859,16.1562692 Z M172.220261,20.7071753 L171.279662,20.7071753 L171.279662,19.6329096 L159.274859,19.6329096 L159.274859,20.7071753 L158.336287,20.7071753 L158.336287,13.4777127 L172.220261,13.4777127 L172.220261,20.7071753 Z M158.22074,11.0184769 L164.817097,11.0184769 L164.817097,7.21894756 L158.22074,7.21894756 L158.22074,11.0184769 Z M157.288249,11.8632681 L173.306815,11.8632681 L173.306815,6.37415643 L157.288249,6.37415643 L157.288249,11.8632681 Z M175.613716,5.05620102 L175.214366,5.87865393 C173.000715,5.39330518 171.022213,4.74549659 169.291024,3.93522817 L169.291024,4.65614368 L161.285796,4.65614368 L161.285796,3.93522817 C159.546498,4.8348495 157.634892,5.54967277 155.548952,6.09188247 L155.076625,5.31816751 C159.266751,4.31497803 162.615608,2.62945725 165.129278,0.273789655 L166.132719,0.558094365 L165.798239,0.842399075 C168.419348,2.87111625 171.691174,4.28045531 175.613716,5.05620102 L175.613716,5.05620102 Z" id="Fill-42" fill="#008DCB" mask="url(#mask-2)"></path>
                    <path d="M0.0377050527,49.6617823 C1.32292029,50.502512 2.64259714,50.9228768 3.99876274,50.9228768 C5.41168864,50.9228768 6.48202562,50.6365413 7.19761076,50.0638704 C7.91927736,49.495261 8.28213782,48.6423469 8.28213782,47.5152818 C8.28213782,46.989318 8.1828073,46.5283383 7.98617342,46.1323424 C7.78751239,45.7343158 7.48546654,45.3565967 7.07395441,44.9971543 C6.66244227,44.6316197 5.75225041,44.0345798 4.33932451,43.1958809 C3.02572912,42.4201352 2.12567303,41.8088801 1.63915622,41.3600848 C1.15263941,40.9112895 0.779643187,40.4218792 0.524221862,39.8898233 C0.26474623,39.3597981 0.143117028,38.7424507 0.143117028,38.0398119 C0.143117028,37.1767441 0.372185359,36.3867831 0.832349174,35.6780521 C1.29251299,34.9713518 1.94120207,34.4189884 2.77841641,34.0311155 C3.61765791,33.6371504 4.56231138,33.4401679 5.61845829,33.4401679 C6.74960987,33.4401679 7.83210977,33.6229352 8.85987653,33.9864391 L8.85987653,35.3632862 C7.81183823,34.8657529 6.67460519,34.6180017 5.45628602,34.6180017 C4.25215691,34.6180017 3.28925906,34.9185524 2.55745669,35.525746 C1.82970863,36.1329396 1.46482103,36.9188391 1.46482103,37.8895366 C1.46482103,38.5393759 1.56415154,39.0551859 1.76889403,39.449151 C1.96755506,39.8390546 2.31217114,40.2289582 2.79463364,40.6229233 C3.2831776,41.0168884 4.13863632,41.5712826 5.37722703,42.2861058 C6.49418854,42.9217299 7.34762011,43.4984624 7.94563036,44.0102108 C8.54161345,44.5219593 8.96934281,45.0398 9.22476413,45.55561 C9.48018546,46.07142 9.60992327,46.6867366 9.60992327,47.4015599 C9.60992327,48.8555754 9.10718924,50.002948 8.09969401,50.8457084 C7.09625309,51.6884687 5.75225041,52.1088336 4.05552304,52.1088336 C3.43724126,52.1088336 2.71152035,52.0052654 1.87836031,51.8082829 C1.04520028,51.6052081 0.428945653,51.387918 0.0377050527,51.1523513 L0.0377050527,49.6617823 Z" id="Fill-43" fill="#008DCB" mask="url(#mask-2)"></path>
                    <path d="M17.4168963,51.6210479 C16.8148318,51.9073834 16.249256,52.0495357 15.7019246,52.0495357 C13.790319,52.0495357 12.8314754,50.9062246 12.8314754,48.615541 L12.8314754,39.9990775 L10.5144391,39.9990775 L10.5144391,38.9045044 L12.8314754,38.9045044 L12.8314754,35.5740778 L14.0173601,35.1638667 L14.0173601,38.9045044 L17.4168963,38.9045044 L17.4168963,39.9990775 L14.0173601,39.9990775 L14.0173601,48.4490196 C14.0173601,49.3364565 14.1592609,49.9761421 14.439008,50.3761994 C14.716728,50.7701645 15.1971634,50.9712086 15.8803141,50.9712086 C16.3526408,50.9712086 16.8634835,50.8128102 17.4168963,50.5021058 L17.4168963,51.6210479 Z" id="Fill-44" fill="#008DCB" mask="url(#mask-2)"></path>
                    <path d="M28.3485236,51.7936615 L28.3485236,49.4623629 L28.3018991,49.4623629 C27.4180602,51.2291136 26.0355416,52.1084274 24.1644791,52.1084274 C21.1196947,52.1084274 19.5993297,50.1995244 19.5993297,46.3735953 L19.5993297,38.9045044 L20.8176488,38.9045044 L20.8176488,46.0831983 C20.8176488,47.8012111 21.1075318,49.050121 21.6771619,49.8360205 C22.246792,50.6239507 23.1427938,51.015885 24.3692215,51.015885 C25.5490248,51.015885 26.5078684,50.5772435 27.243725,49.7019911 C27.9795817,48.8287695 28.3485236,47.6813969 28.3485236,46.2598734 L28.3485236,38.9045044 L29.556707,38.9045044 L29.556707,51.7936615 L28.3485236,51.7936615 Z" id="Fill-45" fill="#008DCB" mask="url(#mask-2)"></path>
                    <path d="M42.5781267,43.9620821 C42.5781267,42.7131721 42.1909404,41.6876444 41.4104864,40.8875297 C40.6381409,40.0874151 39.6367272,39.6873577 38.4082722,39.6873577 C37.0399437,39.6873577 35.9189279,40.2153522 35.0675235,41.2733718 C34.2120647,42.32733 33.7802811,43.7326076 33.7802811,45.4790508 C33.7802811,47.1787868 34.1613859,48.5292342 34.9215684,49.5222699 C35.6817509,50.5173364 36.7074905,51.0169004 38.0048687,51.0169004 C39.4076588,51.0169004 40.5185389,50.5823203 41.339536,49.7090987 C42.1666146,48.8358771 42.5781267,47.7128735 42.5781267,46.3319649 L42.5781267,43.9620821 Z M42.5781267,51.7946769 L42.5781267,49.4633782 L42.5315022,49.4633782 C42.0956642,50.3122309 41.4571109,50.964101 40.6178694,51.42305 C39.7826822,51.8779375 38.880599,52.1094428 37.8974296,52.1094428 C36.2858426,52.1094428 34.9884645,51.5184951 34.0032679,50.3406613 C33.0200986,49.1547046 32.5254731,47.5666597 32.5254731,45.5724652 C32.5254731,44.2199871 32.774813,43.0096613 33.2694384,41.9435187 C33.7640638,40.8753453 34.4654589,40.0468001 35.3675422,39.4639754 C36.2716526,38.8811508 37.2933379,38.5907538 38.4204351,38.5907538 C40.3442037,38.5907538 41.7145594,39.3807148 42.5315022,40.9586059 L42.5781267,40.9586059 L42.5781267,32.7178308 L43.7863101,32.7178308 L43.7863101,51.7946769 L42.5781267,51.7946769 Z" id="Fill-46" fill="#008DCB" mask="url(#mask-2)"></path>
                    <path d="M56.2693179,44.3369582 C56.2226933,42.8687274 55.8659143,41.7254163 55.201008,40.9110864 C54.5381289,40.092695 53.6360456,39.6865454 52.4886768,39.6865454 C51.2804934,39.6865454 50.283134,40.092695 49.5026799,40.9110864 C48.7222259,41.7254163 48.2438177,42.8687274 48.0654282,44.3369582 L56.2693179,44.3369582 Z M48.0066407,45.4315313 C48.0066407,47.1779745 48.4100442,48.5466986 49.2168513,49.5356729 C50.0256855,50.5226164 51.142647,51.0160881 52.5677358,51.0160881 C54.0212048,51.0160881 55.4219678,50.4860629 56.7923234,49.430074 L56.7923234,50.6992914 C55.4544022,51.6415585 53.9684988,52.1086305 52.3265046,52.1086305 C50.5993699,52.1086305 49.2411771,51.4933139 48.2438177,50.2647114 C47.2464582,49.0320474 46.7518328,47.3729263 46.7518328,45.2954712 C46.7518328,44.0729609 47.0011726,42.9438651 47.4876895,41.9081837 C47.9823149,40.8704715 48.6674927,40.0581723 49.5513316,39.4733169 C50.429089,38.8844 51.4264485,38.5919723 52.5353014,38.5919723 C54.1002638,38.5919723 55.3185829,39.142305 56.1983675,40.2450011 C57.0720706,41.3476972 57.5119629,42.8951271 57.5119629,44.8832294 L57.5119629,45.4315313 L48.0066407,45.4315313 Z" id="Fill-47" fill="#008DCB" mask="url(#mask-2)"></path>
                    <path d="M69.1449852,51.7936615 L69.1449852,44.3022324 C69.1449852,41.2256493 68.0361323,39.6863423 65.8184265,39.6863423 C64.6001074,39.6863423 63.5946393,40.1310761 62.8020223,41.0205437 C62.0073782,41.9100113 61.6060018,43.0330149 61.6060018,44.393616 L61.6060018,51.7936615 L60.3998456,51.7936615 L60.3998456,38.9045044 L61.6060018,38.9045044 L61.6060018,41.2378338 L61.6587078,41.2378338 C62.599307,39.4731138 64.0608846,38.5917692 66.0414134,38.5917692 C67.4259592,38.5917692 68.4881875,39.0547797 69.2280985,39.9828315 C69.9639552,40.9129141 70.3328971,42.2329002 70.3328971,43.950913 L70.3328971,51.7936615 L69.1449852,51.7936615 Z" id="Fill-48" fill="#008DCB" mask="url(#mask-2)"></path>
                    <path d="M78.9047151,51.6210479 C78.3067049,51.9073834 77.7370748,52.0495357 77.1937977,52.0495357 C75.2781377,52.0495357 74.3233485,50.9062246 74.3233485,48.615541 L74.3233485,39.9990775 L72.0042851,39.9990775 L72.0042851,38.9045044 L74.3233485,38.9045044 L74.3233485,35.5740778 L75.5072061,35.1638667 L75.5072061,38.9045044 L78.9047151,38.9045044 L78.9047151,39.9990775 L75.5072061,39.9990775 L75.5072061,48.4490196 C75.5072061,49.3364565 75.651134,49.9761421 75.9268268,50.3761994 C76.2045468,50.7701645 76.6870093,50.9712086 77.3681329,50.9712086 C77.8404596,50.9712086 78.3553566,50.8128102 78.9047151,50.5021058 L78.9047151,51.6210479 Z" id="Fill-49" fill="#008DCB" mask="url(#mask-2)"></path>
                    <path d="M80.9000422,49.7887041 C81.3277716,50.1583002 81.8548314,50.4507279 82.4791947,50.6761409 C83.1015308,50.9035847 83.646835,51.0152758 84.1110531,51.0152758 C86.1138807,51.0152758 87.1112401,50.2009459 87.1112401,48.5763475 C87.1112401,48.0381993 86.9105519,47.5670658 86.515257,47.1751315 C86.1138807,46.7831971 85.3739697,46.3486171 84.2894426,45.8734221 C83.0893678,45.3596428 82.2339091,44.8214946 81.7149578,44.246793 C81.1960066,43.6781835 80.936531,42.9633603 80.936531,42.1104461 C80.936531,41.0788262 81.3399345,40.2299736 82.1467415,39.5760727 C82.9515214,38.9160797 83.9529352,38.59116 85.1449014,38.59116 C86.2334827,38.59116 87.1842176,38.8186038 87.9869704,39.2694298 L87.9869704,40.6178464 C87.0220454,40.000499 86.0307674,39.6857331 85.0090821,39.6857331 C84.1860578,39.6857331 83.5130429,39.9009924 82.9819287,40.3335417 C82.456896,40.766091 82.1913389,41.3347004 82.1913389,42.0434315 C82.1913389,42.522688 82.2744522,42.9024378 82.4325701,43.1806503 C82.5906881,43.4629243 82.8521909,43.7269215 83.22316,43.9787342 C83.5921019,44.2244547 84.1313247,44.5067287 84.8469098,44.8275869 C85.7814275,45.237798 86.5030941,45.6195786 87.0017738,45.9729287 C87.5045079,46.3262788 87.8572326,46.6999365 88.0619751,47.0918708 C88.2687447,47.4838052 88.3721295,47.9711847 88.3721295,48.5540093 C88.3721295,49.6181212 87.9748075,50.4791584 87.176109,51.1289977 C86.3834921,51.7828985 85.3313995,52.1098489 84.0198312,52.1098489 C82.7771862,52.1098489 81.7392837,51.811329 80.9000422,51.2244428 L80.9000422,49.7887041 Z" id="Fill-50" fill="#008DCB" mask="url(#mask-2)"></path>
                    <polygon id="Fill-51" fill="#008DCB" mask="url(#mask-2)" points="91.0151321 39.3963515 92.1280393 39.3963515 92.1280393 33.7427493 91.0151321 33.7427493"></polygon>
                    <polygon id="Fill-52" fill="#008DCB" mask="url(#mask-2)" points="103.705112 51.7940676 104.996409 51.7940676 104.996409 33.7427493 103.705112 33.7427493"></polygon>
                    <path d="M117.796666,51.7936615 L117.796666,44.3022324 C117.796666,41.2256493 116.687813,39.6863423 114.466053,39.6863423 C113.251788,39.6863423 112.242266,40.1310761 111.449649,41.0205437 C110.655005,41.9100113 110.257683,43.0330149 110.257683,44.393616 L110.257683,51.7936615 L109.047472,51.7936615 L109.047472,38.9045044 L110.257683,38.9045044 L110.257683,41.2378338 L110.306334,41.2378338 C111.250988,39.4731138 112.712565,38.5917692 114.68904,38.5917692 C116.081694,38.5917692 117.143923,39.0547797 117.875725,39.9828315 C118.615636,40.9129141 118.980524,42.2329002 118.980524,43.950913 L118.980524,51.7936615 L117.796666,51.7936615 Z" id="Fill-53" fill="#008DCB" mask="url(#mask-2)"></path>
                    <path d="M127.995883,33.9630855 C127.683701,33.725488 127.215429,33.6016123 126.587011,33.6016123 C125.01394,33.6016123 124.22335,34.6657242 124.22335,36.7878558 L124.22335,38.9059259 L127.612751,38.9059259 L127.612751,40.000499 L124.22335,40.000499 L124.22335,51.7930523 L123.02733,51.7930523 L123.02733,40.000499 L120.722457,40.000499 L120.722457,38.9059259 L123.02733,38.9059259 L123.02733,36.6355497 C123.02733,35.3744553 123.34762,34.3712658 123.984146,33.6259813 C124.626754,32.8806968 125.504511,32.5090699 126.625527,32.5090699 C127.172859,32.5090699 127.630995,32.5902999 127.995883,32.7527597 L127.995883,33.9630855 Z" id="Fill-54" fill="#008DCB" mask="url(#mask-2)"></path>
                    <path d="M134.449528,39.6863423 C132.908892,39.6863423 131.704763,40.2102753 130.822951,41.252049 C129.947221,42.2999149 129.505301,43.701131 129.505301,45.4556972 C129.505301,47.1432487 129.943166,48.4896346 130.818897,49.4989163 C131.694627,50.5102288 132.886593,51.015885 134.394795,51.015885 C135.927323,51.015885 137.113208,50.516321 137.950422,49.5232853 C138.789664,48.5302496 139.209284,47.1371565 139.209284,45.3500983 C139.209284,43.5183637 138.793718,42.1151169 137.972721,41.1464501 C137.153751,40.1696604 135.978002,39.6863423 134.449528,39.6863423 M134.358306,52.1084274 C133.142014,52.1084274 132.077759,51.8302149 131.143241,51.2717593 C130.212778,50.7112728 129.497193,49.9274041 128.998513,48.9181224 C128.497806,47.90681 128.248466,46.7431914 128.248466,45.4313282 C128.248466,44.0483889 128.50186,42.8380631 129.008649,41.8044124 C129.515437,40.7646695 130.249267,39.9706471 131.197974,39.4162529 C132.144655,38.8659202 133.249454,38.5917692 134.508316,38.5917692 C136.346944,38.5917692 137.794331,39.1949013 138.860614,40.4011656 C139.920815,41.6135221 140.45193,43.2685817 140.45193,45.3724365 C140.45193,46.6964842 140.20259,47.8702565 139.70391,48.8998457 C139.201176,49.9274041 138.487618,50.7234573 137.565263,51.2758208 C136.642908,51.8302149 135.578653,52.1084274 134.358306,52.1084274" id="Fill-55" fill="#008DCB" mask="url(#mask-2)"></path>
                    <path d="M149.526482,40.1643804 C149.14335,39.8841372 148.679131,39.7419848 148.156126,39.7419848 C147.095925,39.7419848 146.232357,40.288256 145.587723,41.3767369 C144.932952,42.4631871 144.608607,43.9090796 144.608607,45.710353 L144.608607,51.7944738 L143.420696,51.7944738 L143.420696,38.9053167 L144.608607,38.9053167 L144.608607,41.7503945 L144.653205,41.7503945 C144.941061,40.7857893 145.401224,40.030351 146.037751,39.4759569 C146.67225,38.9256242 147.408106,38.6474117 148.247348,38.6474117 C148.719675,38.6474117 149.147404,38.7286416 149.526482,38.8809477 L149.526482,40.1643804 Z" id="Fill-56" fill="#008DCB" mask="url(#mask-2)"></path>
                    <path d="M167.909317,51.7936615 L167.909317,44.0565119 C167.909317,42.4948667 167.659977,41.3759246 167.17346,40.6996856 C166.684916,40.0234465 165.882163,39.6863423 164.769256,39.6863423 C164.108404,39.6863423 163.490122,39.8873864 162.916438,40.2874437 C162.346808,40.6854703 161.890698,41.2337723 161.554191,41.9303188 C161.221738,42.6248346 161.055511,43.3782421 161.055511,44.1966335 L161.055511,51.7936615 L159.855436,51.7936615 L159.855436,43.9610667 C159.855436,41.1139581 158.774963,39.6863423 156.614018,39.6863423 C155.572061,39.6863423 154.708494,40.1270146 154.019262,41.002267 C153.328002,41.8836116 152.983386,43.0045845 152.983386,44.3712778 L152.983386,51.7936615 L151.775203,51.7936615 L151.775203,38.9045044 L152.983386,38.9045044 L152.983386,41.051005 L153.030011,41.051005 C153.921958,39.4101606 155.231499,38.5917692 156.962688,38.5917692 C157.876934,38.5917692 158.671579,38.8577972 159.344594,39.3878224 C160.017608,39.9219091 160.477772,40.6347016 160.714949,41.5282307 C161.110244,40.6184556 161.681901,39.8995709 162.417758,39.3776687 C163.157669,38.8517049 163.98272,38.5917692 164.896967,38.5917692 C167.710655,38.5917692 169.121554,40.3341509 169.121554,43.8229759 L169.121554,51.7936615 L167.909317,51.7936615 Z" id="Fill-57" fill="#008DCB" mask="url(#mask-2)"></path>
                    <path d="M173.080179,48.4043432 C173.080179,49.1882119 173.341682,49.8177438 173.864688,50.2970003 C174.383639,50.7762568 175.074898,51.015885 175.94252,51.015885 C176.743245,51.015885 177.470994,50.806718 178.123737,50.3924454 C178.782562,49.9741113 179.295432,49.3912867 179.664373,48.6419407 C180.03737,47.8925947 180.225895,47.0599881 180.225895,46.1441208 L180.225895,44.8830263 L176.710811,45.384621 C175.385053,45.5714498 174.450535,45.9024617 173.903204,46.3654723 C173.357899,46.8325443 173.080179,47.5128449 173.080179,48.4043432 L173.080179,48.4043432 Z M180.225895,51.7936615 L180.225895,49.2410113 L180.17927,49.2410113 C179.743432,50.1365712 179.137314,50.8351485 178.364968,51.3448662 C177.590596,51.8545839 176.735137,52.1084274 175.804673,52.1084274 C174.600544,52.1084274 173.637646,51.7692925 172.905844,51.088992 C172.18215,50.4107221 171.813208,49.5395313 171.813208,48.4713579 C171.813208,46.1887972 173.297085,44.8261653 176.266864,44.385493 L180.225895,43.7884532 C180.225895,41.0550664 179.194074,39.6863423 177.130432,39.6863423 C175.713452,39.6863423 174.330933,40.252921 172.988957,41.3881091 L172.988957,39.9564318 C173.532235,39.5340362 174.189032,39.2030243 174.961378,38.9593346 C175.729669,38.7156448 176.49796,38.5917692 177.250034,38.5917692 C178.596064,38.5917692 179.631939,38.9999495 180.353606,39.8203717 C181.073245,40.6407939 181.438133,41.8409659 181.438133,43.4147955 L181.438133,51.7936615 L180.225895,51.7936615 Z" id="Fill-58" fill="#008DCB" mask="url(#mask-2)"></path>
                    <path d="M190.073401,51.6210479 C189.47539,51.9073834 188.90576,52.0495357 188.358429,52.0495357 C186.446823,52.0495357 185.48798,50.9062246 185.48798,48.615541 L185.48798,39.9990775 L183.172971,39.9990775 L183.172971,38.9045044 L185.48798,38.9045044 L185.48798,35.5740778 L186.675892,35.1638667 L186.675892,38.9045044 L190.073401,38.9045044 L190.073401,39.9990775 L186.675892,39.9990775 L186.675892,48.4490196 C186.675892,49.3364565 186.815765,49.9761421 187.091458,50.3761994 C187.373232,50.7701645 187.855695,50.9712086 188.536818,50.9712086 C189.013199,50.9712086 189.524042,50.8128102 190.073401,50.5021058 L190.073401,51.6210479 Z" id="Fill-59" fill="#008DCB" mask="url(#mask-2)"></path>
                    <path d="M192.393072,51.7940676 L193.60531,51.7940676 L193.60531,38.9049105 L192.393072,38.9049105 L192.393072,51.7940676 Z M192.987028,35.6557139 C192.72958,35.6557139 192.504566,35.5602687 192.305905,35.3754706 C192.109271,35.1886418 192.00994,34.9490136 192.00994,34.6525244 C192.00994,34.3885272 192.105216,34.1651449 192.297796,33.9823776 C192.492403,33.7996103 192.725525,33.7061958 192.987028,33.7061958 C193.248531,33.7061958 193.481654,33.7955488 193.680315,33.9620701 C193.878976,34.1367144 193.976279,34.3661889 193.976279,34.6525244 C193.976279,34.9307368 193.878976,35.1663036 193.684369,35.3632862 C193.489762,35.5541765 193.260694,35.6557139 192.987028,35.6557139 L192.987028,35.6557139 Z" id="Fill-60" fill="#008DCB" mask="url(#mask-2)"></path>
                    <path d="M202.727297,39.6863423 C201.190715,39.6863423 199.982532,40.2102753 199.104774,41.252049 C198.220935,42.2999149 197.78307,43.701131 197.78307,45.4556972 C197.78307,47.1432487 198.220935,48.4896346 199.096666,49.4989163 C199.97645,50.5102288 201.166389,51.015885 202.66851,51.015885 C204.207119,51.015885 205.390977,50.516321 206.232246,49.5232853 C207.067433,48.5302496 207.482999,47.1371565 207.482999,45.3500983 C207.482999,43.5183637 207.075541,42.1151169 206.254544,41.1464501 C205.43152,40.1696604 204.255771,39.6863423 202.727297,39.6863423 M202.632021,52.1084274 C201.423838,52.1084274 200.355528,51.8302149 199.425065,51.2717593 C198.490547,50.7112728 197.779016,49.9274041 197.276282,48.9181224 C196.775575,47.90681 196.53029,46.7431914 196.53029,45.4313282 C196.53029,44.0483889 196.779629,42.8380631 197.286418,41.8044124 C197.79726,40.7646695 198.527036,39.9706471 199.475743,39.4162529 C200.426478,38.8659202 201.531277,38.5917692 202.786085,38.5917692 C204.624713,38.5917692 206.0721,39.1949013 207.134329,40.4011656 C208.198584,41.6135221 208.729699,43.2685817 208.729699,45.3724365 C208.729699,46.6964842 208.480359,47.8702565 207.981679,48.8998457 C207.482999,49.9274041 206.765387,50.7234573 205.843032,51.2758208 C204.920677,51.8302149 203.856422,52.1084274 202.632021,52.1084274" id="Fill-61" fill="#008DCB" mask="url(#mask-2)"></path>
                    <path d="M220.445023,51.7936615 L220.445023,44.3022324 C220.445023,41.2256493 219.33617,39.6863423 217.118465,39.6863423 C215.900145,39.6863423 214.894677,40.1310761 214.10206,41.0205437 C213.307416,41.9100113 212.910094,43.0330149 212.910094,44.393616 L212.910094,51.7936615 L211.695829,51.7936615 L211.695829,38.9045044 L212.910094,38.9045044 L212.910094,41.2378338 L212.958746,41.2378338 C213.901372,39.4731138 215.360923,38.5917692 217.341451,38.5917692 C218.730052,38.5917692 219.79228,39.0547797 220.528137,39.9828315 C221.263993,40.9129141 221.632935,42.2329002 221.632935,43.950913 L221.632935,51.7936615 L220.445023,51.7936615 Z" id="Fill-62" fill="#008DCB" mask="url(#mask-2)"></path>
                    <polygon id="Fill-63" fill="#008DCB" mask="url(#mask-2)" points="237.735223 34.9307368 237.735223 51.7940676 236.468252 51.7940676 236.468252 34.9307368 231.266576 34.9307368 231.266576 33.7427493 242.932844 33.7427493 242.932844 34.9307368"></polygon>
                    <path d="M252.24214,44.3369582 C252.195516,42.8687274 251.842791,41.7254163 251.177885,40.9110864 C250.515006,40.092695 249.608868,39.6865454 248.461499,39.6865454 C247.253316,39.6865454 246.260011,40.092695 245.479557,40.9110864 C244.695048,41.7254163 244.21664,42.8687274 244.038251,44.3369582 L252.24214,44.3369582 Z M243.983517,45.4315313 C243.983517,47.1779745 244.386921,48.5466986 245.193728,49.5356729 C245.998508,50.5226164 247.119524,51.0160881 248.540558,51.0160881 C249.989973,51.0160881 251.398844,50.4860629 252.765146,49.430074 L252.765146,50.6992914 C251.435333,51.6415585 249.945375,52.1086305 248.299327,52.1086305 C246.580301,52.1086305 245.218054,51.4933139 244.220694,50.2647114 C243.223335,49.0320474 242.724655,47.3729263 242.724655,45.2954712 C242.724655,44.0729609 242.973995,42.9438651 243.464566,41.9081837 C243.959192,40.8704715 244.644369,40.0581723 245.524154,39.4733169 C246.405966,38.8844 247.395217,38.5919723 248.508124,38.5919723 C250.073086,38.5919723 251.29546,39.142305 252.175244,40.2450011 C253.048947,41.3476972 253.48884,42.8951271 253.48884,44.8832294 L253.48884,45.4315313 L243.983517,45.4315313 Z" id="Fill-64" fill="#008DCB" mask="url(#mask-2)"></path>
                    <path d="M264.955433,51.2244428 C264.004698,51.811329 262.869492,52.1098489 261.541706,52.1098489 C260.386229,52.1098489 259.356435,51.835698 258.466515,51.295519 C257.570513,50.7533093 256.879254,49.9836559 256.394764,48.9824971 C255.912301,47.9914921 255.67107,46.8542733 255.67107,45.5728714 C255.67107,44.2325777 255.944736,43.0324057 256.494094,41.9601708 C257.04548,40.8879359 257.813771,40.05736 258.794913,39.4725046 C259.78011,38.8856184 260.893017,38.59116 262.131608,38.59116 C263.14113,38.59116 264.099974,38.7942348 265.010166,39.1983536 L265.010166,40.5386472 C264.079702,39.9700378 263.066126,39.6857331 261.969436,39.6857331 C261.004511,39.6857331 260.132835,39.9314536 259.356435,40.4208639 C258.578008,40.9102741 257.979998,41.5986977 257.560377,42.490196 C257.140756,43.3796636 256.921824,44.3848838 256.921824,45.5038259 C256.921824,47.1670085 257.349553,48.4991791 258.205012,49.5023686 C259.056416,50.5096196 260.187568,51.0152758 261.602521,51.0152758 C262.887736,51.0152758 264.004698,50.6700487 264.955433,49.9775636 L264.955433,51.2244428 Z" id="Fill-65" fill="#008DCB" mask="url(#mask-2)"></path>
                    <path d="M276.314587,51.7936615 L276.314587,44.0808809 C276.314587,42.5659429 276.036866,41.4551238 275.491562,40.744362 C274.936122,40.0396925 274.076609,39.6863423 272.904915,39.6863423 C272.144732,39.6863423 271.449418,39.8873864 270.818974,40.2874437 C270.186502,40.6854703 269.685795,41.2561105 269.322935,41.9953027 C268.958047,42.7324642 268.775603,43.5610094 268.775603,44.4890612 L268.775603,51.7936615 L267.565393,51.7936615 L267.565393,32.7168155 L268.775603,32.7168155 L268.775603,41.2134648 L268.824255,41.2134648 C269.852022,39.4649908 271.325762,38.5917692 273.233313,38.5917692 C274.636104,38.5917692 275.696305,39.036503 276.422026,39.9320628 C277.137611,40.8255919 277.498444,42.1151169 277.498444,43.8026684 L277.498444,51.7936615 L276.314587,51.7936615 Z" id="Fill-66" fill="#008DCB" mask="url(#mask-2)"></path>
                    <path d="M289.831442,51.7936615 L289.831442,44.3022324 C289.831442,41.2256493 288.72259,39.6863423 286.504884,39.6863423 C285.286565,39.6863423 284.285151,40.1310761 283.484425,41.0205437 C282.693835,41.9100113 282.296513,43.0330149 282.296513,44.393616 L282.296513,51.7936615 L281.086303,51.7936615 L281.086303,38.9045044 L282.296513,38.9045044 L282.296513,41.2378338 L282.341111,41.2378338 C283.285764,39.4731138 284.747342,38.5917692 286.727871,38.5917692 C288.116471,38.5917692 289.178699,39.0547797 289.914556,39.9828315 C290.650412,40.9129141 291.0153,42.2329002 291.0153,43.950913 L291.0153,51.7936615 L289.831442,51.7936615 Z" id="Fill-67" fill="#008DCB" mask="url(#mask-2)"></path>
                    <path d="M299.97917,39.6863423 C298.438533,39.6863423 297.234404,40.2102753 296.356646,41.252049 C295.472808,42.2999149 295.034942,43.701131 295.034942,45.4556972 C295.034942,47.1432487 295.472808,48.4896346 296.348538,49.4989163 C297.228322,50.5102288 298.416234,51.015885 299.924436,51.015885 C301.456964,51.015885 302.642849,50.516321 303.480063,49.5232853 C304.315251,48.5302496 304.734871,47.1371565 304.734871,45.3500983 C304.734871,43.5183637 304.327414,42.1151169 303.506416,41.1464501 C302.683392,40.1696604 301.511697,39.6863423 299.97917,39.6863423 M299.887948,52.1084274 C298.67571,52.1084274 297.6074,51.8302149 296.672882,51.2717593 C295.742419,50.7112728 295.026834,49.9274041 294.530181,48.9181224 C294.027447,47.90681 293.778107,46.7431914 293.778107,45.4313282 C293.778107,44.0483889 294.031502,42.8380631 294.53829,41.8044124 C295.049133,40.7646695 295.774853,39.9706471 296.727616,39.4162529 C297.67835,38.8659202 298.779095,38.5917692 300.037957,38.5917692 C301.876585,38.5917692 303.323973,39.1949013 304.386201,40.4011656 C305.446402,41.6135221 305.981571,43.2685817 305.981571,45.3724365 C305.981571,46.6964842 305.732231,47.8702565 305.229497,48.8998457 C304.730817,49.9274041 304.017259,50.7234573 303.094904,51.2758208 C302.172549,51.8302149 301.10424,52.1084274 299.887948,52.1084274" id="Fill-68" fill="#008DCB" mask="url(#mask-2)"></path>
                    <polygon id="Fill-69" fill="#008DCB" mask="url(#mask-2)" points="308.974663 51.7940676 310.1869 51.7940676 310.1869 32.7172216 308.974663 32.7172216"></polygon>
                    <path d="M319.38369,39.6863423 C317.843053,39.6863423 316.636897,40.2102753 315.753058,41.252049 C314.873274,42.2999149 314.435408,43.701131 314.435408,45.4556972 C314.435408,47.1432487 314.869219,48.4896346 315.749004,49.4989163 C316.624734,50.5102288 317.8167,51.015885 319.324902,51.015885 C320.85743,51.015885 322.043315,50.516321 322.880529,49.5232853 C323.719771,48.5302496 324.139392,47.1371565 324.139392,45.3500983 C324.139392,43.5183637 323.723825,42.1151169 322.902828,41.1464501 C322.079804,40.1696604 320.908109,39.6863423 319.38369,39.6863423 M319.288414,52.1084274 C318.076176,52.1084274 317.003812,51.8302149 316.077403,51.2717593 C315.142885,50.7112728 314.4273,49.9274041 313.92862,48.9181224 C313.427913,47.90681 313.178573,46.7431914 313.178573,45.4313282 C313.178573,44.0483889 313.431967,42.8380631 313.938756,41.8044124 C314.445544,40.7646695 315.179374,39.9706471 316.130109,39.4162529 C317.078816,38.8659202 318.179561,38.5917692 319.434369,38.5917692 C321.277051,38.5917692 322.724439,39.1949013 323.790721,40.4011656 C324.850922,41.6135221 325.382037,43.2685817 325.382037,45.3724365 C325.382037,46.6964842 325.132697,47.8702565 324.634017,48.8998457 C324.131283,49.9274041 323.417725,50.7234573 322.49537,51.2758208 C321.57707,51.8302149 320.504706,52.1084274 319.288414,52.1084274" id="Fill-70" fill="#008DCB" mask="url(#mask-2)"></path>
                    <path d="M337.612258,43.8709015 C337.612258,43.109371 337.433869,42.4026708 337.089253,41.7609544 C336.736528,41.1151766 336.250011,40.6115511 335.609431,40.2399242 C334.974932,39.8682974 334.267455,39.68553 333.49511,39.68553 C332.088265,39.68553 330.957114,40.2155553 330.101655,41.2776364 C329.246196,42.3376868 328.818467,43.7409337 328.818467,45.4914384 C328.818467,47.1850821 329.203626,48.5294373 329.963809,49.522473 C330.728045,50.5155087 331.776084,51.0150727 333.122114,51.0150727 C334.451926,51.0150727 335.53848,50.5764312 336.369613,49.6950866 C337.196692,48.8178035 337.612258,47.7191688 337.612258,46.389029 L337.612258,43.8709015 Z M338.824496,50.8424592 C338.824496,53.2387417 338.297436,55.0075232 337.247371,56.1427112 C336.191224,57.2778993 334.543148,57.844478 332.295035,57.844478 C331.040227,57.844478 329.757039,57.5154968 328.443444,56.8636268 L328.443444,55.6147168 C329.823935,56.378278 331.119286,56.7580279 332.331524,56.7580279 C335.850662,56.7580279 337.612258,54.8917705 337.612258,51.1531636 L337.612258,49.4879503 L337.565634,49.4879503 C336.53584,51.2343935 334.987095,52.1096459 332.931561,52.1096459 C331.87136,52.1096459 330.932788,51.8456486 330.113818,51.3176542 C329.292821,50.787629 328.664403,50.0362522 328.224511,49.0513395 C327.780564,48.0664267 327.559605,46.9170234 327.559605,45.5970373 C327.559605,44.2323747 327.808945,43.0200181 328.295461,41.9559062 C328.794141,40.8836713 329.487428,40.0571569 330.387484,39.4723015 C331.285513,38.8854154 332.311252,38.5909569 333.458621,38.5909569 C335.335765,38.5909569 336.706121,39.3687334 337.565634,40.9364708 L337.612258,40.9364708 L337.612258,38.9057228 L338.824496,38.9057228 L338.824496,50.8424592 Z" id="Fill-71" fill="#008DCB" mask="url(#mask-2)"></path>
                    <path d="M342.240655,57.8440719 C341.857523,57.8440719 341.521015,57.7851802 341.231133,57.6673968 L341.231133,56.4794092 C341.559531,56.5971926 341.91631,56.6540536 342.287279,56.6540536 C343.313019,56.6540536 344.121853,55.9473533 344.719863,54.5339527 L345.907775,51.6888749 L341.032471,38.9053167 L342.370393,38.9053167 L346.23212,49.3819452 L346.52403,50.3282738 L346.568627,50.3282738 L346.8727,49.4388062 L350.989849,38.9053167 L352.2852,38.9053167 L346.049676,54.4060156 C345.559105,55.6346181 345.019882,56.5119012 344.429981,57.0439572 C343.840079,57.5780439 343.112331,57.8440719 342.240655,57.8440719" id="Fill-72" fill="#008DCB" mask="url(#mask-2)"></path>
                    <path d="M373.827759,51.1887017 C372.390507,51.8040183 370.866088,52.1086305 369.254501,52.1086305 C367.618588,52.1086305 366.167146,51.7329421 364.892067,50.9775039 C363.621041,50.2240964 362.635845,49.1660767 361.938504,47.7892296 C361.241163,46.4205055 360.888439,44.8690141 360.888439,43.1367861 C360.888439,41.2969285 361.269544,39.6296845 362.021617,38.1411462 C362.769637,36.6546388 363.829838,35.4971124 365.200194,34.6726288 C366.57055,33.8542374 368.119295,33.4399648 369.848457,33.4399648 C371.243138,33.4399648 372.568896,33.6653778 373.827759,34.1141731 L373.827759,35.4788357 C372.544571,34.9061648 371.210704,34.6177986 369.824131,34.6177986 C368.311874,34.6177986 366.982062,34.9670872 365.826584,35.669726 C364.66908,36.3743955 363.779159,37.3654005 363.152769,38.642741 C362.53246,39.9221122 362.214197,41.3761277 362.214197,43.0068183 C362.214197,44.5603404 362.512189,45.9432798 363.106145,47.1515748 C363.7001,48.3578391 364.543396,49.2879216 365.631978,49.9418224 C366.720559,50.5936925 367.963204,50.9226737 369.36194,50.9226737 C371.016097,50.9226737 372.506055,50.5936925 373.827759,49.9418224 L373.827759,51.1887017 Z" id="Fill-73" fill="#008DCB" mask="url(#mask-2)"></path>
                    <path d="M381.995768,39.6863423 C380.46324,39.6863423 379.251002,40.2102753 378.373245,41.252049 C377.49346,42.2999149 377.051541,43.701131 377.051541,45.4556972 C377.051541,47.1432487 377.489406,48.4896346 378.365136,49.4989163 C379.240866,50.5102288 380.43486,51.015885 381.941035,51.015885 C383.473563,51.015885 384.663502,50.516321 385.500716,49.5232853 C386.335903,48.5302496 386.755524,47.1371565 386.755524,45.3500983 C386.755524,43.5183637 386.344012,42.1151169 385.51896,41.1464501 C384.704045,40.1696604 383.524241,39.6863423 381.995768,39.6863423 M381.904546,52.1084274 C380.692308,52.1084274 379.623998,51.8302149 378.693535,51.2717593 C377.763072,50.7112728 377.047486,49.9274041 376.54678,48.9181224 C376.0481,47.90681 375.794706,46.7431914 375.794706,45.4313282 C375.794706,44.0483889 376.052154,42.8380631 376.558942,41.8044124 C377.065731,40.7646695 377.795506,39.9706471 378.744214,39.4162529 C379.694949,38.8659202 380.799747,38.5917692 382.054555,38.5917692 C383.893183,38.5917692 385.340571,39.1949013 386.406854,40.4011656 C387.467055,41.6135221 387.998169,43.2685817 387.998169,45.3724365 C387.998169,46.6964842 387.748829,47.8702565 387.250149,48.8998457 C386.75147,49.9274041 386.037912,50.7234573 385.115557,51.2758208 C384.193202,51.8302149 383.120838,52.1084274 381.904546,52.1084274" id="Fill-74" fill="#008DCB" mask="url(#mask-2)"></path>
                    <path d="M399.717548,51.7936615 L399.717548,44.3022324 C399.717548,41.2256493 398.608695,39.6863423 396.386935,39.6863423 C395.168616,39.6863423 394.167202,40.1310761 393.370531,41.0205437 C392.575887,41.9100113 392.17451,43.0330149 392.17451,44.393616 L392.17451,51.7936615 L390.968354,51.7936615 L390.968354,38.9045044 L392.17451,38.9045044 L392.17451,41.2378338 L392.223162,41.2378338 C393.169843,39.4731138 394.633447,38.5917692 396.609922,38.5917692 C397.994468,38.5917692 399.06075,39.0547797 399.796607,39.9828315 C400.532464,40.9129141 400.90546,42.2329002 400.90546,43.950913 L400.90546,51.7936615 L399.717548,51.7936615 Z" id="Fill-75" fill="#008DCB" mask="url(#mask-2)"></path>
                    <path d="M409.916562,33.9630855 C409.60438,33.725488 409.136108,33.6016123 408.50769,33.6016123 C406.930565,33.6016123 406.14403,34.6657242 406.14403,36.7878558 L406.14403,38.9059259 L409.53343,38.9059259 L409.53343,40.000499 L406.14403,40.000499 L406.14403,51.7930523 L404.948009,51.7930523 L404.948009,40.000499 L402.64719,40.000499 L402.64719,38.9059259 L404.948009,38.9059259 L404.948009,36.6355497 C404.948009,35.3744553 405.268299,34.3712658 405.90888,33.6259813 C406.543379,32.8806968 407.425191,32.5090699 408.542152,32.5090699 C409.093538,32.5090699 409.551674,32.5902999 409.916562,32.7527597 L409.916562,33.9630855 Z" id="Fill-76" fill="#008DCB" mask="url(#mask-2)"></path>
                    <path d="M419.672238,44.3369582 C419.625613,42.8687274 419.272888,41.7254163 418.607982,40.9110864 C417.945103,40.092695 417.038965,39.6865454 415.891597,39.6865454 C414.679359,39.6865454 413.686054,40.092695 412.909654,40.9110864 C412.1292,41.7254163 411.650792,42.8687274 411.472402,44.3369582 L419.672238,44.3369582 Z M411.413615,45.4315313 C411.413615,47.1779745 411.817018,48.5466986 412.623825,49.5356729 C413.428605,50.5226164 414.545567,51.0160881 415.97471,51.0160881 C417.428179,51.0160881 418.832996,50.4860629 420.199298,49.430074 L420.199298,50.6992914 C418.865431,51.6415585 417.375473,52.1086305 415.729424,52.1086305 C414.010398,52.1086305 412.648151,51.4933139 411.650792,50.2647114 C410.653432,49.0320474 410.158807,47.3729263 410.158807,45.2954712 C410.158807,44.0729609 410.404092,42.9438651 410.894664,41.9081837 C411.385235,40.8704715 412.074467,40.0581723 412.956279,39.4733169 C413.836063,38.8844 414.829368,38.5919723 415.938221,38.5919723 C417.503184,38.5919723 418.721503,39.142305 419.601287,40.2450011 C420.47499,41.3476972 420.914883,42.8951271 420.914883,44.8832294 L420.914883,45.4315313 L411.413615,45.4315313 Z" id="Fill-77" fill="#008DCB" mask="url(#mask-2)"></path>
                    <path d="M429.910984,40.1643804 C429.523798,39.8841372 429.063634,39.7419848 428.540628,39.7419848 C427.472318,39.7419848 426.61686,40.288256 425.964116,41.3767369 C425.3134,42.4631871 424.989056,43.9090796 424.989056,45.710353 L424.989056,51.7944738 L423.801144,51.7944738 L423.801144,38.9053167 L424.989056,38.9053167 L424.989056,41.7503945 L425.033653,41.7503945 C425.317454,40.7857893 425.781672,40.030351 426.422253,39.4759569 C427.056752,38.9256242 427.792609,38.6474117 428.627796,38.6474117 C429.104177,38.6474117 429.529879,38.7286416 429.910984,38.8809477 L429.910984,40.1643804 Z" id="Fill-78" fill="#008DCB" mask="url(#mask-2)"></path>
                    <path d="M440.41103,44.3369582 C440.36846,42.8687274 440.011681,41.7254163 439.346775,40.9110864 C438.683896,40.092695 437.777758,39.6865454 436.630389,39.6865454 C435.418151,39.6865454 434.428901,40.092695 433.648447,40.9110864 C432.867993,41.7254163 432.389584,42.8687274 432.211195,44.3369582 L440.41103,44.3369582 Z M432.152407,45.4315313 C432.152407,47.1779745 432.555811,48.5466986 433.362618,49.5356729 C434.167398,50.5226164 435.288414,51.0160881 436.713502,51.0160881 C438.166971,51.0160881 439.571789,50.4860629 440.93809,49.430074 L440.93809,50.6992914 C439.604223,51.6415585 438.114265,52.1086305 436.468217,52.1086305 C434.745137,52.1086305 433.390998,51.4933139 432.393639,50.2647114 C431.396279,49.0320474 430.897599,47.3729263 430.897599,45.2954712 C430.897599,44.0729609 431.142885,42.9438651 431.633456,41.9081837 C432.128082,40.8704715 432.817314,40.0581723 433.695071,39.4733169 C434.574856,38.8844 435.568161,38.5919723 436.677014,38.5919723 C438.24603,38.5919723 439.46435,39.142305 440.344134,40.2450011 C441.217837,41.3476972 441.65773,42.8951271 441.65773,44.8832294 L441.65773,45.4315313 L432.152407,45.4315313 Z" id="Fill-79" fill="#008DCB" mask="url(#mask-2)"></path>
                    <path d="M453.290549,51.7936615 L453.290549,44.3022324 C453.290549,41.2256493 452.177642,39.6863423 449.96399,39.6863423 C448.741617,39.6863423 447.740203,40.1310761 446.943532,41.0205437 C446.148888,41.9100113 445.751566,43.0330149 445.751566,44.393616 L445.751566,51.7936615 L444.541355,51.7936615 L444.541355,38.9045044 L445.751566,38.9045044 L445.751566,41.2378338 L445.800217,41.2378338 C446.744871,39.4731138 448.206449,38.5917692 450.186977,38.5917692 C451.571523,38.5917692 452.633751,39.0547797 453.369608,39.9828315 C454.105465,40.9129141 454.478461,42.2329002 454.478461,43.950913 L454.478461,51.7936615 L453.290549,51.7936615 Z" id="Fill-80" fill="#008DCB" mask="url(#mask-2)"></path>
                    <path d="M466.52259,51.2244428 C465.575909,51.811329 464.436649,52.1098489 463.108864,52.1098489 C461.953386,52.1098489 460.927647,51.835698 460.033672,51.295519 C459.13767,50.7533093 458.450465,49.9836559 457.961921,48.9824971 C457.479459,47.9914921 457.238228,46.8542733 457.238228,45.5728714 C457.238228,44.2325777 457.511893,43.0324057 458.065306,41.9601708 C458.616692,40.8879359 459.384983,40.05736 460.366125,39.4725046 C461.351322,38.8856184 462.460175,38.59116 463.706874,38.59116 C464.712342,38.59116 465.671186,38.7942348 466.577323,39.1983536 L466.577323,40.5386472 C465.64686,39.9700378 464.637337,39.6857331 463.540647,39.6857331 C462.571668,39.6857331 461.695938,39.9314536 460.923592,40.4208639 C460.147193,40.9102741 459.55121,41.5986977 459.127535,42.490196 C458.707914,43.3796636 458.493036,44.3848838 458.493036,45.5038259 C458.493036,47.1670085 458.920765,48.4991791 459.772169,49.5023686 C460.627628,50.5096196 461.754725,51.0152758 463.169678,51.0152758 C464.454894,51.0152758 465.575909,50.6700487 466.52259,49.9775636 L466.52259,51.2244428 Z" id="Fill-81" fill="#008DCB" mask="url(#mask-2)"></path>
                    <path d="M477.636256,44.3369582 C477.591658,42.8687274 477.236907,41.7254163 476.574027,40.9110864 C475.909121,40.092695 475.002984,39.6865454 473.855615,39.6865454 C472.647431,39.6865454 471.650072,40.092695 470.873672,40.9110864 C470.089164,41.7254163 469.61481,42.8687274 469.43642,44.3369582 L477.636256,44.3369582 Z M469.377633,45.4315313 C469.377633,47.1779745 469.781036,48.5466986 470.587843,49.5356729 C471.392623,50.5226164 472.509585,51.0160881 473.938728,51.0160881 C475.388143,51.0160881 476.797014,50.4860629 478.159261,49.430074 L478.159261,50.6992914 C476.827422,51.6415585 475.339491,52.1086305 473.693442,52.1086305 C471.974416,52.1086305 470.612169,51.4933139 469.618864,50.2647114 C468.621505,49.0320474 468.122825,47.3729263 468.122825,45.2954712 C468.122825,44.0729609 468.368111,42.9438651 468.858682,41.9081837 C469.357361,40.8704715 470.038485,40.0581723 470.916242,39.4733169 C471.796027,38.8844 472.793386,38.5919723 473.902239,38.5919723 C475.471256,38.5919723 476.689575,39.142305 477.56936,40.2450011 C478.443063,41.3476972 478.878901,42.8951271 478.878901,44.8832294 L478.878901,45.4315313 L469.377633,45.4315313 Z" id="Fill-82" fill="#008DCB" mask="url(#mask-2)"></path>
                </g>
            </g>
        </g>
    </g>
</svg>